<svg xmlns="http://www.w3.org/2000/svg"
 xmlns:xlink="http://www.w3.org/1999/xlink"
 width="41px" height="43px"  viewBox="0 0 41 43">
<path fill-rule="evenodd"  fill="#292929"
 d="M1.0004272,38.60076 C1.0004272,38.60076 1.0004272,36.22937 1.0004272,36.22937 C1.0004272,34.557587 2.3275757,33.20241 3.9646606,33.20241 C3.9646606,33.20241 20.971375,33.20241 20.971375,33.20241 C23.29663,33.20241 24.495605,34.326866 24.495605,36.001495 C24.495605,36.001495 24.495605,39.37574 24.495605,39.37574 C24.495605,41.12487 23.345093,41.999763 20.971375,41.999763 C20.971375,41.999763 3.741516,41.999763 3.741516,41.999763 C2.0115051,41.999763 1.0004272,40.824913 1.0004272,38.60076 ZM4.3562927,38.800804 C4.3562927,38.800804 21.13974,38.800804 21.13974,38.800804 C21.263,38.800804 21.362885,38.6987 21.362885,38.572716 C21.362885,38.572716 21.362885,36.629456 21.362885,36.629456 C21.362885,36.50347 21.263,36.401367 21.13974,36.401367 C21.13974,36.401367 4.3562927,36.401367 4.3562927,36.401367 C4.233032,36.401367 4.1331177,36.50347 4.1331177,36.629456 C4.1331177,36.629456 4.1331177,38.572716 4.1331177,38.572716 C4.1331177,38.6987 4.233032,38.800804 4.3562927,38.800804 ZM14.091187,14.807529 C14.214447,14.807529 14.314362,14.909412 14.314362,15.0354 C14.314362,15.0354 14.314362,15.607269 14.314362,15.607269 C14.314362,15.607269 14.314362,22.46202 14.314362,22.46202 C14.314362,22.46202 14.314362,22.46202 14.314362,22.46202 C14.314362,22.46202 14.314362,22.462898 14.314362,22.462898 C14.314362,22.462898 13.428467,24.897171 13.428467,24.897171 C13.374237,25.046165 13.482147,25.204578 13.637665,25.204578 C13.637665,25.204578 14.881195,25.204578 14.881195,25.204578 C14.953064,25.204578 15.020569,25.169083 15.062561,25.109486 C15.062561,25.109486 31.258057,2.0660362 31.258057,2.0660362 C31.325867,1.96941 31.454956,1.9422417 31.554688,2.003811 C31.554688,2.003811 34.80133,4.0035973 34.80133,4.0035973 C34.90503,4.067356 34.93994,4.2040787 34.879883,4.311661 C34.879883,4.311661 33.923096,6.0246353 33.923096,6.0246353 C33.90393,6.0590363 33.893738,6.0978203 33.893738,6.137478 C33.893738,6.137478 33.893738,16.179134 33.893738,16.179134 C33.893738,16.304905 33.993652,16.407005 34.117004,16.407005 C34.117004,16.407005 34.792664,16.407005 34.792664,16.407005 C34.928345,16.407005 35.032654,16.529705 35.01361,16.666866 C35.01361,16.666866 34.299988,21.80952 34.299988,21.80952 C34.284424,21.92192 34.190247,22.005402 34.07898,22.005402 C34.07898,22.005402 33.93286,22.005402 33.93286,22.005402 C33.93286,22.005402 33.893738,22.005402 33.893738,22.005402 C33.893738,22.005402 33.893738,23.554268 33.893738,23.554268 C33.893738,23.639717 33.940186,23.71772 34.014587,23.7565 C34.68506,24.105759 35.381775,24.797916 35.381775,25.987446 C35.381775,26.728027 35.13446,27.293762 34.756165,27.699986 C34.668274,27.794418 34.67511,27.944508 34.77185,28.029522 C34.77185,28.029522 38.377197,31.202187 38.377197,31.202187 C38.533936,31.340004 38.438416,31.60271 38.231506,31.60271 C38.231506,31.60271 37.715576,31.60271 37.715576,31.60271 C37.66205,31.60271 37.61029,31.58321 37.569763,31.547497 C37.569763,31.547497 33.970276,28.379871 33.970276,28.379871 C33.91089,28.327507 33.828613,28.310196 33.754456,28.33627 C33.447998,28.444508 33.125366,28.503666 32.80597,28.503666 C32.48932,28.503666 32.17444,28.428295 31.883545,28.29004 C31.806213,28.253227 31.71521,28.264183 31.648926,28.31918 C31.648926,28.31918 27.743896,31.55188 27.743896,31.55188 C27.70404,31.584747 27.654541,31.60271 27.603271,31.60271 C27.603271,31.60271 27.14917,31.598331 27.14917,31.598331 C26.913818,31.596138 26.810608,31.293991 26.99353,31.142807 C26.99353,31.142807 30.975342,27.847004 30.975342,27.847004 C31.064758,27.772945 31.085693,27.640823 31.020447,27.54398 C30.77179,27.17413 30.61383,26.702831 30.61383,26.121979 C30.61383,25.6796 30.964722,25.322018 31.396973,25.322018 C31.829346,25.322018 32.180176,25.6796 32.180176,26.121979 C32.180176,26.23219 32.191406,26.326843 32.210876,26.407913 C32.249634,26.569614 32.441345,26.63403 32.568054,26.52908 C32.568054,26.52908 32.57019,26.527325 32.57019,26.527325 C32.716675,26.406597 32.928833,26.40813 33.072144,26.53543 C33.072144,26.53543 33.243896,26.686398 33.243896,26.686398 C33.32428,26.757168 33.442932,26.761112 33.526367,26.694504 C33.697693,26.557343 33.81543,26.337578 33.81543,25.988323 C33.81543,25.26527 33.112915,25.090206 32.98059,25.064568 C32.603027,24.99818 32.327393,24.665577 32.327393,24.275127 C32.327393,24.275127 32.327393,22.233273 32.327393,22.233273 C32.327393,22.107506 32.227478,22.005402 32.104187,22.005402 C32.104187,22.005402 31.779175,22.005402 31.779175,22.005402 C31.779175,22.005402 31.641052,22.005402 31.641052,22.005402 C31.534607,22.005402 31.443054,21.928715 31.422241,21.822227 C31.422241,21.822227 30.415771,16.679577 30.415771,16.679577 C30.388184,16.538471 30.493774,16.407005 30.634644,16.407005 C30.634644,16.407005 31.152649,16.407005 31.152649,16.407005 C31.152649,16.407005 31.320984,16.407005 31.320984,16.407005 C31.444336,16.407005 31.54425,16.304905 31.54425,16.179134 C31.54425,16.179134 31.54425,11.5351715 31.54425,11.5351715 C31.54425,11.296562 31.230652,11.218342 31.122986,11.430218 C31.122986,11.430218 22.171295,29.02361 22.171295,29.02361 C22.154724,29.056034 22.146118,29.092186 22.146118,29.12878 C22.146118,29.12878 22.146118,29.200207 22.146118,29.200207 C22.146118,29.200207 22.146118,29.441006 22.146118,29.441006 C22.146118,29.441006 22.146118,29.775364 22.146118,29.775364 C22.146118,29.90113 22.046204,30.003235 21.922974,30.003235 C21.922974,30.003235 19.236572,30.003235 19.236572,30.003235 C19.113342,30.003235 19.013428,30.10534 19.013428,30.231106 C19.013428,30.231106 19.013428,31.37484 19.013428,31.37484 C19.013428,31.50061 18.913513,31.60271 18.790253,31.60271 C18.790253,31.60271 8.04895,31.60271 8.04895,31.60271 C8.04895,31.60271 7.488983,31.60271 7.488983,31.60271 C7.3657227,31.60271 7.2658386,31.50061 7.2658386,31.37484 C7.2658386,31.37484 7.2658386,30.231106 7.2658386,30.231106 C7.2658386,30.10534 7.165924,30.003235 7.0425415,30.003235 C7.0425415,30.003235 3.349884,30.003235 3.349884,30.003235 C3.349884,30.003235 2.789917,30.003235 2.789917,30.003235 C2.666687,30.003235 2.5667725,29.90113 2.5667725,29.775364 C2.5667725,29.775364 2.5667725,15.0354 2.5667725,15.0354 C2.5667725,14.909412 2.666687,14.807529 2.789917,14.807529 C2.789917,14.807529 14.091187,14.807529 14.091187,14.807529 ZM21.088806,18.966171 C21.088806,18.966171 21.079407,18.979977 21.079407,18.979977 C21.079407,18.979977 23.692993,20.716618 23.692993,20.716618 C23.874756,20.837563 24.10144,20.649132 24.022705,20.442734 C24.022705,20.442734 22.78003,17.187466 22.78003,17.187466 C22.715942,17.01963 22.4953,16.990486 22.39148,17.136192 C22.39148,17.136192 21.088806,18.966171 21.088806,18.966171 ZM32.327393,16.179134 C32.327393,16.304905 32.427246,16.407005 32.55066,16.407005 C32.55066,16.407005 32.718994,16.407005 32.718994,16.407005 C32.718994,16.407005 32.88733,16.407005 32.88733,16.407005 C33.01068,16.407005 33.110596,16.304905 33.110596,16.179134 C33.110596,16.179134 33.110596,8.501858 33.110596,8.501858 C33.110596,8.264347 32.799194,8.185249 32.690125,8.395153 C32.690125,8.395153 32.353455,9.043709 32.353455,9.043709 C32.336304,9.076572 32.327393,9.113384 32.327393,9.1504135 C32.327393,9.1504135 32.327393,16.179134 32.327393,16.179134 ZM31.943054,7.6780167 C31.943054,7.6780167 32.903442,5.8153915 32.903442,5.8153915 C32.95703,5.7115326 32.9245,5.5831375 32.82849,5.5187187 C32.82849,5.5187187 31.331299,4.5136795 31.331299,4.5136795 C31.166382,4.4030304 30.952332,4.548954 30.989319,4.746807 C30.989319,4.746807 31.526245,7.6146927 31.526245,7.6146927 C31.565979,7.826351 31.844666,7.8688583 31.943054,7.6780167 ZM29.526306,6.359432 C29.526306,6.359432 28.417358,8.324379 28.417358,8.324379 C28.357971,8.429771 28.389893,8.564083 28.48993,8.629814 C28.48993,8.629814 30.28003,9.807297 30.28003,9.807297 C30.44757,9.917507 30.661926,9.765007 30.618774,9.566277 C30.618774,9.566277 29.937622,6.423851 29.937622,6.423851 C29.893677,6.2207375 29.628052,6.1791077 29.526306,6.359432 ZM29.400757,11.522022 C29.400757,11.522022 27.745056,10.422329 27.745056,10.422329 C27.577698,10.311241 27.362549,10.463299 27.405396,10.662468 C27.405396,10.662468 28.053589,13.673653 28.053589,13.673653 C28.098083,13.880051 28.369995,13.918831 28.4682,13.73259 C28.4682,13.73259 29.475586,11.821106 29.475586,11.821106 C29.53064,11.716591 29.498047,11.5866585 29.400757,11.522022 ZM26.026733,11.915539 C26.026733,11.915539 24.768433,13.789558 24.768433,13.789558 C24.697144,13.895824 24.726074,14.041092 24.832153,14.11055 C24.832153,14.11055 26.723999,15.347626 26.723999,15.347626 C26.890503,15.456524 27.10315,15.307091 27.062988,15.109459 C27.062988,15.109459 26.429443,11.998142 26.429443,11.998142 C26.389343,11.801605 26.13794,11.750114 26.026733,11.915539 ZM26.420715,17.438122 C26.420715,17.438122 24.334473,15.9784355 24.334473,15.9784355 C24.154541,15.852669 23.922913,16.037594 23.999146,16.246181 C23.999146,16.246181 25.187134,19.495533 25.187134,19.495533 C25.255005,19.681118 25.50647,19.696018 25.59491,19.519855 C25.59491,19.519855 26.493164,17.729973 26.493164,17.729973 C26.544434,17.627869 26.513428,17.50298 26.420715,17.438122 ZM22.617859,24.752342 C22.617859,24.752342 23.659607,22.875034 23.659607,22.875034 C23.715942,22.77359 23.68811,22.644974 23.595093,22.57705 C23.595093,22.57705 21.009033,20.6912 21.009033,20.6912 C20.82605,20.557762 20.586517,20.752987 20.6734,20.964863 C20.6734,20.964863 22.217773,24.728241 22.217773,24.728241 C22.28952,24.90287 22.526428,24.91711 22.617859,24.752342 ZM21.033295,26.25103 C21.033295,26.25103 19.172485,22.15549 19.172485,22.15549 C19.100952,21.998173 18.89038,21.9767 18.79004,22.116707 C18.79004,22.116707 17.276428,24.224514 17.276428,24.224514 C17.197815,24.333847 17.229736,24.488758 17.34488,24.556679 C17.34488,24.556679 20.719269,26.544415 20.719269,26.544415 C20.908112,26.655502 21.125092,26.452827 21.033295,26.25103 ZM5.922638,22.805141 C5.922638,22.805141 10.958496,22.805141 10.958496,22.805141 C11.081757,22.805141 11.181641,22.703255 11.181641,22.57727 C11.181641,22.57727 11.181641,18.234577 11.181641,18.234577 C11.181641,18.10859 11.081757,18.006485 10.958496,18.006485 C10.958496,18.006485 5.922638,18.006485 5.922638,18.006485 C5.7993774,18.006485 5.699463,18.10859 5.699463,18.234577 C5.699463,18.234577 5.699463,22.57727 5.699463,22.57727 C5.699463,22.703255 5.7993774,22.805141 5.922638,22.805141 ZM38.216858,36.401367 C38.216858,36.401367 38.776794,36.401367 38.776794,36.401367 C38.900146,36.401367 39.00006,36.50347 39.00006,36.629456 C39.00006,36.629456 39.00006,37.772972 39.00006,37.772972 C39.00006,37.898964 38.900146,38.00107 38.776794,38.00107 C38.776794,38.00107 26.692383,38.00107 26.692383,38.00107 C26.569153,38.00107 26.469238,37.898964 26.469238,37.772972 C26.469238,37.772972 26.469238,36.629456 26.469238,36.629456 C26.469238,36.50347 26.569153,36.401367 26.692383,36.401367 C26.692383,36.401367 27.812439,36.401367 27.812439,36.401367 C27.935669,36.401367 28.035583,36.299263 28.035583,36.1735 C28.035583,36.1735 28.035583,34.801888 28.035583,34.801888 C28.035583,34.801888 28.035583,34.23002 28.035583,34.23002 C28.035583,34.104034 27.935669,34.002148 27.812439,34.002148 C27.812439,34.002148 26.692383,34.002148 26.692383,34.002148 C26.569153,34.002148 26.469238,33.900047 26.469238,33.77406 C26.469238,33.77406 26.469238,32.630543 26.469238,32.630543 C26.469238,32.504555 26.569153,32.40245 26.692383,32.40245 C26.692383,32.40245 38.776794,32.40245 38.776794,32.40245 C38.900146,32.40245 39.00006,32.504555 39.00006,32.630543 C39.00006,32.630543 39.00006,33.77406 39.00006,33.77406 C39.00006,33.900047 38.900146,34.002148 38.776794,34.002148 C38.776794,34.002148 37.65686,34.002148 37.65686,34.002148 C37.53363,34.002148 37.433716,34.104034 37.433716,34.23002 C37.433716,34.23002 37.433716,36.1735 37.433716,36.1735 C37.433716,36.299263 37.53363,36.401367 37.65686,36.401367 C37.65686,36.401367 38.216858,36.401367 38.216858,36.401367 Z"/>
</svg>