<svg width="80" height="80" viewBox="0 0 80 80" fill="none" xmlns="http://www.w3.org/2000/svg">
<g clip-path="url(#clip0)">
<path d="M44.2042 33.896C45.3389 33.896 46.2619 34.669 46.2619 35.619C46.2619 36.4819 46.9616 37.1816 47.8244 37.1816C48.6873 37.1816 49.387 36.4819 49.387 35.619C49.387 33.4551 47.8632 31.618 45.7667 30.9965V30.7793C45.7667 29.9165 45.067 29.2168 44.2042 29.2168C43.3413 29.2168 42.6416 29.9165 42.6416 30.7793V30.9965C40.5451 31.6181 39.0215 33.4551 39.0215 35.619C39.0215 38.2923 41.3464 40.467 44.2042 40.467C45.3389 40.467 46.2619 41.24 46.2619 42.19C46.2619 43.1401 45.3389 43.9129 44.2042 43.9129C43.0696 43.9129 42.1466 43.1401 42.1466 42.19C42.1466 41.3272 41.4469 40.6275 40.584 40.6275C39.7212 40.6275 39.0215 41.3272 39.0215 42.19C39.0215 44.354 40.5451 46.191 42.6416 46.8124V47.0296C42.6416 47.8924 43.3413 48.5921 44.2042 48.5921C45.067 48.5921 45.7667 47.8924 45.7667 47.0296V46.8124C47.8632 46.191 49.387 44.354 49.387 42.19C49.387 39.5168 47.0619 37.3419 44.2042 37.3419C43.0696 37.3419 42.1466 36.5691 42.1466 35.619C42.1466 34.669 43.0696 33.896 44.2042 33.896Z" fill="#272727"/>
<path d="M79.7648 52.1962C79.1522 50.0718 77.428 48.4666 75.2655 48.0066C73.8806 47.7117 72.4402 47.9269 71.2102 48.5806C71.9224 44.1516 71.5483 39.57 70.0828 35.2994C69.8026 34.4831 68.9137 34.0492 68.0976 34.3286C67.2813 34.6088 66.8468 35.4975 67.1268 36.3138C68.8578 41.3573 68.8718 46.89 67.176 51.9395L54.7239 62.9988C53.9555 63.681 53.113 64.2594 52.2175 64.7291C52.4707 63.7049 52.4535 62.6203 52.1494 61.59C51.6692 59.9627 50.5162 58.6093 48.9862 57.8764L37.9552 52.593C33.1325 50.283 27.4879 50.0158 22.4687 51.8586L21.3474 52.2703C18.2351 43.4783 20.4015 33.7278 27.0664 27.063L38.0977 16.0319H50.3101L59.6568 25.3786C60.2672 25.9886 61.2563 25.9886 61.8667 25.3786C62.4769 24.7684 62.4769 23.779 61.8667 23.1687L52.9361 14.2386L56.1645 4.94794C56.5974 3.70243 56.1194 2.34363 55.0021 1.6433C53.8852 0.943117 52.4536 1.10547 51.5212 2.03737L51.502 2.05659C50.8562 2.70271 49.8049 2.70271 49.1591 2.05659C46.4167 -0.685531 41.9548 -0.685531 39.2124 2.05659C38.8996 2.36957 38.4835 2.54176 38.041 2.54176C37.5984 2.54176 37.1823 2.36941 36.8695 2.05659C35.9362 1.12328 34.5038 0.961712 33.386 1.66408C32.2683 2.36629 31.7922 3.72696 32.2283 4.97294L35.4707 14.2395L24.8566 24.8534C20.9285 28.7817 18.3173 33.7344 17.3057 39.176C16.4184 43.948 16.8027 48.8139 18.4114 53.3486L15.948 54.253C15.1283 53.1874 13.8416 52.4986 12.3963 52.4986H4.47937C2.00944 52.4987 0 54.5082 0 56.978V75.5201C0 77.9901 2.00944 79.9995 4.47937 79.9995H45.6626C52.1313 79.9995 58.2485 77.5166 62.8872 73.0082L78.1876 58.1381C79.7731 56.5975 80.3774 54.3207 79.7648 52.1962ZM38.0408 5.66702C39.318 5.66702 40.5188 5.16966 41.4222 4.26651C42.946 2.74271 45.4254 2.74271 46.9492 4.26651C47.8524 5.16966 49.0534 5.66702 50.3306 5.66702C51.2375 5.66702 52.1056 5.41639 52.8563 4.94763L50.0906 12.907H38.3153L35.5343 4.9595C36.2806 5.42045 37.1415 5.66702 38.0408 5.66702ZM3.1251 75.5203V56.978C3.1251 56.2312 3.73262 55.6237 4.47937 55.6237H12.3962C13.1429 55.6237 13.7505 56.2312 13.7505 56.978V75.5201C13.7505 76.2669 13.1429 76.8744 12.3962 76.8744H4.47937C3.73262 76.8745 3.1251 76.267 3.1251 75.5203ZM76.0096 55.8973L60.7092 70.7673C56.6569 74.7056 51.3133 76.8745 45.6626 76.8745H16.6657C16.8017 76.447 16.8756 75.9922 16.8756 75.5203V57.2417L23.5458 54.7926C27.7783 53.2386 32.5386 53.4639 36.6053 55.4118L47.6363 60.6953C48.3802 61.0515 48.9185 61.6836 49.152 62.4749C49.3854 63.2661 49.2765 64.0894 48.8451 64.7926C48.1519 65.9222 46.7855 66.4303 45.5226 66.0292L30.8681 61.369C30.0458 61.1078 29.1671 61.5622 28.9053 62.3847C28.6439 63.2071 29.0985 64.0858 29.921 64.3474L44.5755 69.0074C45.1792 69.1993 45.7937 69.2915 46.4005 69.2915C46.4736 69.2915 46.5464 69.2871 46.6192 69.2845C50.3773 69.2304 53.9845 67.8353 56.7988 65.3357L72.1285 51.7206C72.803 51.1217 73.7329 50.876 74.615 51.0635C75.6624 51.2864 76.4649 52.0336 76.7616 53.0625C77.0588 54.0911 76.7776 55.1509 76.0096 55.8973Z" fill="#272727"/>
<path d="M65.4297 31.093C65.8406 31.093 66.2438 30.9273 66.5342 30.6351C66.8248 30.3445 66.9922 29.9428 66.9922 29.5305C66.9922 29.1195 66.825 28.718 66.5342 28.4258C66.2438 28.1353 65.8406 27.968 65.4297 27.968C65.0186 27.968 64.6172 28.1351 64.325 28.4258C64.0344 28.718 63.8672 29.1195 63.8672 29.5305C63.8672 29.943 64.0342 30.3445 64.325 30.6351C64.6155 30.9275 65.0186 31.093 65.4297 31.093Z" fill="#272727"/>
</g>
<defs>
<clipPath id="clip0">
<rect width="80" height="80" fill="white"/>
</clipPath>
</defs>
</svg>
