<svg width="80" height="80" viewBox="0 0 80 80" fill="none" xmlns="http://www.w3.org/2000/svg">
<g clip-path="url(#clip0)">
<path d="M79.3464 46.8534C72.439 42.6815 69.0466 34.5029 70.973 26.6667C71.1007 26.2041 70.9699 25.7085 70.6306 25.3692C70.2912 25.0298 69.7957 24.899 69.333 25.0267C63.5161 26.4692 57.3614 24.9754 52.853 21.0267C52.2971 20.5407 51.4524 20.5974 50.9664 21.1534C50.4804 21.7094 50.5371 22.554 51.093 23.0401C55.729 27.0919 61.9095 28.9051 67.9997 28.0001C66.8678 35.6796 70.0427 43.3608 76.2664 48.0001C70.0475 52.6431 66.8739 60.3212 67.9997 68.0001C60.3201 66.8682 52.639 70.043 47.9997 76.2667C43.3623 70.0406 35.6797 66.8652 27.9997 68.0001C29.1929 60.313 26.0054 52.6013 19.733 48.0001C25.3565 43.8098 28.5297 37.0986 28.1997 30.0934L38.6664 40.5201C35.4432 44.565 35.1743 50.22 37.9992 54.5525C40.824 58.885 46.107 60.9201 51.1084 59.6024C56.1098 58.2847 59.7043 53.9107 60.0277 48.7488C60.3512 43.5868 57.3308 38.7984 52.533 36.8667C51.8482 36.5869 51.0662 36.9152 50.7864 37.6001C50.5065 38.2849 50.8349 39.0669 51.5197 39.3467C55.2278 40.8362 57.5762 44.521 57.3605 48.5112C57.1448 52.5014 54.4129 55.9116 50.5658 56.9927C46.7188 58.0738 42.6104 56.5859 40.3478 53.2922C38.0851 49.9984 38.1703 45.6297 40.5597 42.4267L47.0797 48.9467C47.3248 49.1898 47.6545 49.3284 47.9997 49.3334C48.5414 49.3365 49.0311 49.0116 49.2389 48.5114C49.4466 48.0111 49.331 47.4348 48.9464 47.0534L42.4264 40.5334C43.0659 40.0502 43.765 39.6513 44.5064 39.3467C45.1912 39.0669 45.5195 38.2849 45.2397 37.6001C44.9599 36.9152 44.1779 36.5869 43.493 36.8667C42.4188 37.3252 41.4136 37.931 40.5064 38.6667L30.093 28.2401C35.4975 28.5183 40.7988 26.6875 44.8797 23.1334C45.4357 22.6474 45.4924 21.8027 45.0064 21.2467C44.5204 20.6908 43.6757 20.634 43.1197 21.1201C38.6931 24.9709 32.6853 26.4592 26.973 25.1201L23.9064 22.0401C25.4917 20.2427 26.6778 18.1295 27.3864 15.84C28.1597 13.1734 27.9464 11.0001 26.7864 9.84005C23.5064 6.54672 20.6264 3.65338 17.333 0.386717C16.813 -0.130248 15.9731 -0.130248 15.453 0.386717C15.2006 0.637072 15.0586 0.977867 15.0586 1.33338C15.0586 1.6889 15.2006 2.02969 15.453 2.28005L19.2264 6.05338C19.453 6.28005 19.733 7.38672 19.1464 9.41338C17.6486 14.045 14.018 17.6756 9.38637 19.1734C7.37304 19.76 6.25304 19.48 6.02637 19.2534L2.27971 15.48C2.02935 15.2276 1.68856 15.0857 1.33304 15.0857C0.977522 15.0857 0.636728 15.2276 0.386372 15.48C-0.113166 15.9968 -0.113166 16.8166 0.386372 17.3334L9.81304 26.7601C10.6717 27.5119 11.7944 27.8909 12.933 27.8134C16.316 27.5609 19.5149 26.1751 22.013 23.8801L25.093 26.9467C26.8825 34.702 23.4753 42.7275 16.653 46.8267C16.2483 47.0669 16.0001 47.5027 16.0001 47.9734C16.0001 48.4441 16.2483 48.8799 16.653 49.1201C23.6274 53.2471 27.0393 61.4834 25.0264 69.3334C24.8987 69.796 25.0295 70.2916 25.3688 70.6309C25.7082 70.9703 26.2037 71.1011 26.6664 70.9734C34.5117 69.025 42.7104 72.4213 46.8797 79.3467C47.1199 79.7515 47.5557 79.9997 48.0264 79.9997C48.4971 79.9997 48.9329 79.7515 49.173 79.3467C53.3416 72.4505 61.5053 69.0597 69.333 70.9734C69.7957 71.1011 70.2912 70.9703 70.6306 70.6309C70.9699 70.2916 71.1007 69.796 70.973 69.3334C69.0246 61.4881 72.4209 53.2894 79.3464 49.1201C79.7387 48.8769 79.9773 48.4482 79.9773 47.9867C79.9773 47.5252 79.7387 47.0965 79.3464 46.8534ZM15.0664 24.8267C13.053 25.4134 11.933 25.1334 11.7064 24.9067L8.83971 22.0401C15.4274 20.5724 20.5721 15.4277 22.0397 8.84005L24.9064 11.7067C25.133 11.9334 25.413 13.0401 24.8264 15.0667C23.3363 19.703 19.7027 23.3367 15.0664 24.8267Z" fill="white"/>
<path d="M49.3327 1.33333C49.3327 0.596954 48.7357 0 47.9993 0C47.263 0 46.666 0.596954 46.666 1.33333V4C46.666 4.73638 47.263 5.33333 47.9993 5.33333C48.7357 5.33333 49.3327 4.73638 49.3327 4V1.33333Z" fill="white"/>
<path d="M49.3327 9.33358C49.3327 8.5972 48.7357 8.00024 47.9993 8.00024C47.263 8.00024 46.666 8.5972 46.666 9.33358V12.0002C46.666 12.7366 47.263 13.3336 47.9993 13.3336C48.7357 13.3336 49.3327 12.7366 49.3327 12.0002V9.33358Z" fill="white"/>
<path d="M49.3327 17.3334C49.3327 16.597 48.7357 16.0001 47.9993 16.0001C47.263 16.0001 46.666 16.597 46.666 17.3334V20.0001C46.666 20.7364 47.263 21.3334 47.9993 21.3334C48.7357 21.3334 49.3327 20.7364 49.3327 20.0001V17.3334Z" fill="white"/>
<path d="M49.3327 25.3333C49.3327 24.5969 48.7357 23.9999 47.9993 23.9999C47.263 23.9999 46.666 24.5969 46.666 25.3333V27.9999C46.666 28.7363 47.263 29.3333 47.9993 29.3333C48.7357 29.3333 49.3327 28.7363 49.3327 27.9999V25.3333Z" fill="white"/>
<path d="M47.9993 32.0002C47.263 32.0002 46.666 32.5971 46.666 33.3335V36.0002C46.666 36.7366 47.263 37.3335 47.9993 37.3335C48.7357 37.3335 49.3327 36.7366 49.3327 36.0002V33.3335C49.3327 32.5971 48.7357 32.0002 47.9993 32.0002Z" fill="white"/>
</g>
<defs>
<clipPath id="clip0">
<rect width="80" height="80" fill="white"/>
</clipPath>
</defs>
</svg>
