<svg width="34" height="34" viewBox="0 0 34 34" fill="none" xmlns="http://www.w3.org/2000/svg">
<g clip-path="url(#clip0)">
<path d="M0.207517 17.5008L10.8325 28.1258C11.1092 28.4026 11.5575 28.4026 11.8341 28.1258C12.1108 27.8491 12.1108 27.4009 11.8341 27.1242L2.41825 17.7084L33.2916 17.7084C33.6832 17.7084 34 17.3915 34 17C34 16.6085 33.6832 16.2916 33.2916 16.2916L2.41825 16.2916L11.8341 6.87584C12.1108 6.59912 12.1108 6.15088 11.8341 5.87424C11.6958 5.73591 11.5145 5.66672 11.3333 5.66672C11.1521 5.66672 10.9708 5.73591 10.8325 5.87424L0.207448 16.4992C-0.0691976 16.7759 -0.0691976 17.2241 0.207517 17.5008Z" fill="white"/>
</g>
<defs>
<clipPath id="clip0">
<rect x="34" y="34" width="34" height="34" transform="rotate(-180 34 34)" fill="white"/>
</clipPath>
</defs>
</svg>
