<svg width="100" height="80" viewBox="0 0 100 80" fill="none" xmlns="http://www.w3.org/2000/svg">
<mask id="mask0" mask-type="alpha" maskUnits="userSpaceOnUse" x="0" y="0" width="100" height="80">
<rect width="100" height="80" fill="#C4C4C4"/>
</mask>
<g mask="url(#mask0)">
<path d="M11.254 39.844C14.062 39.844 16.21 40.54 17.698 41.932C19.186 43.3 19.93 45.124 19.93 47.404C19.93 49.564 19.198 51.376 17.734 52.84C16.294 54.28 13.87 55 10.462 55L8.91402 54.964C7.90602 54.916 6.91002 54.892 5.92602 54.892C4.10202 54.892 2.68602 54.928 1.67802 55V54.28C2.54202 54.232 3.16602 54.136 3.55002 53.992C3.95802 53.848 4.23402 53.572 4.37802 53.164C4.52202 52.756 4.59402 52.096 4.59402 51.184V33.328C4.59402 32.416 4.52202 31.756 4.37802 31.348C4.23402 30.94 3.95802 30.664 3.55002 30.52C3.16602 30.376 2.54202 30.28 1.67802 30.232V29.512C4.03002 29.584 7.51002 29.62 12.118 29.62C15.142 29.62 17.29 29.584 18.562 29.512C18.394 31.096 18.31 32.512 18.31 33.76C18.31 34.696 18.346 35.44 18.418 35.992H17.59C17.422 34.432 17.206 33.28 16.942 32.536C16.678 31.768 16.234 31.216 15.61 30.88C14.986 30.52 14.038 30.34 12.766 30.34H10.858C9.99402 30.34 9.35802 30.412 8.95002 30.556C8.56602 30.676 8.30202 30.94 8.15802 31.348C8.01402 31.756 7.94202 32.416 7.94202 33.328V39.916L11.254 39.844ZM10.354 54.28C12.634 54.28 14.194 53.68 15.034 52.48C15.898 51.28 16.33 49.6 16.33 47.44C16.33 45.016 15.85 43.264 14.89 42.184C13.93 41.08 12.31 40.528 10.03 40.528C9.19002 40.528 8.49402 40.54 7.94202 40.564V51.184C7.94202 52.072 8.00202 52.732 8.12202 53.164C8.24202 53.596 8.45802 53.896 8.77002 54.064C9.10602 54.208 9.63402 54.28 10.354 54.28ZM34.1393 35.956C35.4113 35.956 36.5513 36.304 37.5593 37C38.5913 37.696 39.3953 38.716 39.9713 40.06C40.5473 41.404 40.8353 43.012 40.8353 44.884C40.8353 46.732 40.5353 48.46 39.9353 50.068C39.3593 51.676 38.4473 52.984 37.1993 53.992C35.9753 55 34.4393 55.504 32.5913 55.504C31.6793 55.504 30.8513 55.324 30.1073 54.964C29.3633 54.604 28.7873 54.136 28.3793 53.56V58.168C28.3793 59.152 28.6673 59.824 29.2433 60.184C29.8193 60.568 30.6833 60.76 31.8353 60.76V61.516L31.0073 61.48C28.7753 61.408 27.3233 61.372 26.6513 61.372C26.0753 61.372 24.7793 61.42 22.7633 61.516V60.76C23.6513 60.76 24.2633 60.592 24.5993 60.256C24.9593 59.944 25.1393 59.368 25.1393 58.528V40.384C25.1393 39.28 24.9353 38.476 24.5273 37.972C24.1193 37.468 23.4113 37.216 22.4033 37.216V36.46C23.1473 36.532 23.8913 36.568 24.6353 36.568C26.1473 36.568 27.3953 36.4 28.3793 36.064V39.88C28.9073 38.632 29.6753 37.672 30.6833 37C31.6913 36.304 32.8433 35.956 34.1393 35.956ZM32.1953 54.676C35.6273 54.676 37.3433 51.58 37.3433 45.388C37.3433 39.82 35.9513 37.036 33.1673 37.036C32.0873 37.036 31.1153 37.432 30.2513 38.224C29.3873 38.992 28.7633 40.108 28.3793 41.572V52.372C28.7153 53.068 29.2073 53.632 29.8553 54.064C30.5033 54.472 31.2833 54.676 32.1953 54.676ZM48.3973 55.252C46.8853 55.252 45.7573 54.88 45.0133 54.136C44.2933 53.368 43.9333 52.312 43.9333 50.968C43.9333 49.888 44.2213 49 44.7973 48.304C45.3973 47.608 46.0933 47.056 46.8853 46.648C47.7013 46.24 48.7693 45.808 50.0893 45.352C51.4333 44.896 52.4293 44.476 53.0773 44.092C53.7253 43.708 54.0493 43.192 54.0493 42.544V40.312C54.0493 38.92 53.7493 37.972 53.1493 37.468C52.5733 36.94 51.7573 36.676 50.7013 36.676C49.0213 36.676 47.8333 37.108 47.1373 37.972C47.6173 38.092 48.0133 38.344 48.3253 38.728C48.6613 39.112 48.8293 39.592 48.8293 40.168C48.8293 40.768 48.6373 41.248 48.2533 41.608C47.8693 41.944 47.3773 42.112 46.7773 42.112C46.1053 42.112 45.6013 41.908 45.2653 41.5C44.9293 41.068 44.7613 40.552 44.7613 39.952C44.7613 39.376 44.8933 38.896 45.1573 38.512C45.4453 38.128 45.8653 37.744 46.4173 37.36C46.9933 36.952 47.7253 36.616 48.6133 36.352C49.5013 36.088 50.4733 35.956 51.5293 35.956C53.4013 35.956 54.8173 36.4 55.7773 37.288C56.3773 37.84 56.7733 38.512 56.9653 39.304C57.1813 40.072 57.2893 41.092 57.2893 42.364V52.372C57.2893 52.972 57.3733 53.404 57.5413 53.668C57.7093 53.932 57.9973 54.064 58.4053 54.064C58.6933 54.064 58.9573 54.004 59.1973 53.884C59.4613 53.74 59.7373 53.548 60.0253 53.308L60.4213 53.92C59.7973 54.4 59.2573 54.748 58.8013 54.964C58.3693 55.156 57.8173 55.252 57.1453 55.252C55.9933 55.252 55.1893 54.964 54.7333 54.388C54.2773 53.812 54.0493 53.032 54.0493 52.048C53.3293 53.248 52.5013 54.088 51.5653 54.568C50.6293 55.024 49.5733 55.252 48.3973 55.252ZM49.9813 53.812C51.5653 53.812 52.9213 52.9 54.0493 51.076V44.02C53.8333 44.356 53.5333 44.632 53.1493 44.848C52.7653 45.064 52.1773 45.352 51.3853 45.712C50.4733 46.096 49.7293 46.468 49.1533 46.828C48.6013 47.164 48.1213 47.632 47.7133 48.232C47.3053 48.832 47.1013 49.6 47.1013 50.536C47.1013 51.616 47.3653 52.432 47.8933 52.984C48.4213 53.536 49.1173 53.812 49.9813 53.812ZM72.087 45.352C74.391 45.472 76.059 45.904 77.091 46.648C78.123 47.392 78.639 48.436 78.639 49.78C78.639 51.34 77.991 52.6 76.695 53.56C75.423 54.52 73.383 55 70.575 55C70.119 55 69.387 54.976 68.379 54.928C67.275 54.88 66.399 54.856 65.751 54.856C65.127 54.856 63.711 54.904 61.503 55V54.244C62.511 54.244 63.219 54.064 63.627 53.704C64.035 53.32 64.239 52.636 64.239 51.652V39.844C64.239 38.86 64.035 38.188 63.627 37.828C63.219 37.444 62.511 37.252 61.503 37.252V36.496C63.711 36.592 65.127 36.64 65.751 36.64C66.399 36.64 67.299 36.616 68.451 36.568C69.411 36.52 70.083 36.496 70.467 36.496C72.987 36.496 74.787 36.88 75.867 37.648C76.947 38.392 77.487 39.46 77.487 40.852C77.487 41.932 77.019 42.88 76.083 43.696C75.171 44.512 73.839 45.064 72.087 45.352ZM70.107 37.252C69.123 37.252 68.439 37.444 68.055 37.828C67.671 38.212 67.479 38.884 67.479 39.844V45.244H68.919C70.335 45.22 71.415 45.064 72.159 44.776C72.927 44.464 73.455 44.02 73.743 43.444C74.031 42.868 74.175 42.1 74.175 41.14C74.175 39.892 73.887 38.932 73.311 38.26C72.735 37.588 71.667 37.252 70.107 37.252ZM70.215 54.244C72.087 54.244 73.395 53.848 74.139 53.056C74.883 52.24 75.255 51.16 75.255 49.816C75.255 48.376 74.859 47.356 74.067 46.756C73.275 46.156 72.159 45.856 70.719 45.856H67.479V51.652C67.479 52.66 67.671 53.344 68.055 53.704C68.463 54.064 69.183 54.244 70.215 54.244ZM89.9753 35.956C92.4233 35.956 94.3913 36.772 95.8793 38.404C97.3913 40.012 98.1473 42.46 98.1473 45.748C98.1473 49.036 97.3913 51.484 95.8793 53.092C94.3913 54.7 92.4233 55.504 89.9753 55.504C87.5273 55.504 85.5473 54.7 84.0353 53.092C82.5473 51.484 81.8033 49.036 81.8033 45.748C81.8033 42.46 82.5473 40.012 84.0353 38.404C85.5473 36.772 87.5273 35.956 89.9753 35.956ZM89.9753 36.676C88.5353 36.676 87.3953 37.42 86.5553 38.908C85.7153 40.372 85.2953 42.652 85.2953 45.748C85.2953 48.844 85.7153 51.124 86.5553 52.588C87.3953 54.052 88.5353 54.784 89.9753 54.784C91.4153 54.784 92.5553 54.052 93.3953 52.588C94.2353 51.124 94.6553 48.844 94.6553 45.748C94.6553 42.652 94.2353 40.372 93.3953 38.908C92.5553 37.42 91.4153 36.676 89.9753 36.676Z" fill="white"/>
</g>
</svg>
