<svg width="80" height="80" viewBox="0 0 80 80" fill="none" xmlns="http://www.w3.org/2000/svg">
<g clip-path="url(#clip0)">
<path d="M50.3132 0.00088501C44.7022 0.00088501 39.237 1.57585 34.5085 4.55532C33.7784 5.01546 33.5595 5.98013 34.0196 6.71027C34.4796 7.44057 35.4446 7.65947 36.1746 7.19917C40.4037 4.53438 45.2928 3.12582 50.3134 3.12582C64.9596 3.12582 76.8753 15.0415 76.8753 29.6877C76.8753 44.334 64.9596 56.2497 50.3134 56.2497C35.6671 56.2497 23.7514 44.334 23.7514 29.6877C23.7514 24.6664 25.16 19.7773 27.8249 15.5491C28.2851 14.819 28.0662 13.8542 27.3362 13.3942C26.6062 12.9339 25.6412 13.1528 25.1812 13.8829C22.2015 18.611 20.6265 24.076 20.6265 29.6877C20.6265 36.1845 22.7258 42.1992 26.2793 47.0927L23.6072 49.7648C21.8652 48.935 19.7134 49.2394 18.2733 50.6795L1.37065 67.5819C-0.456807 69.4095 -0.456963 72.3832 1.37065 74.211L5.78993 78.6303C6.67288 79.5131 7.85005 79.9995 9.10439 79.9995C10.3589 79.9995 11.5361 79.5132 12.4189 78.6303L29.3212 61.728C30.2039 60.845 30.6903 59.6679 30.6903 58.4134C30.6903 57.7017 30.5335 57.0151 30.2369 56.393L32.9081 53.7216C37.8016 57.2753 43.8163 59.3745 50.313 59.3745C66.6825 59.3745 79.9999 46.0571 79.9999 29.6876C79.9999 13.3181 66.6827 0.00088501 50.3132 0.00088501ZM27.1117 59.5184L10.2094 76.4205C9.91672 76.7132 9.52439 76.8744 9.10455 76.8744C8.68472 76.8744 8.29238 76.7132 7.99973 76.4205L3.58045 72.0012C2.97125 71.3922 2.97125 70.4008 3.58045 69.7916L20.4827 52.8891C20.7873 52.5846 21.1873 52.4323 21.5874 52.4323C21.9876 52.4323 22.3877 52.5846 22.6922 52.8891L27.1117 57.3086C27.4043 57.6012 27.5654 57.9935 27.5654 58.4132C27.5654 58.8329 27.4045 59.2255 27.1117 59.5184ZM28.2165 53.9941L26.0068 51.7843L28.2562 49.535C28.9538 50.3095 29.6913 51.047 30.4658 51.7446L28.2165 53.9941Z" fill="#272727"/>
<path d="M68.8138 41.4679C69.5721 41.879 70.5208 41.5973 70.9319 40.8387C72.7756 37.4364 73.75 33.5804 73.75 29.6879C73.75 16.7647 63.2361 6.25085 50.313 6.25085C37.3898 6.25085 26.876 16.7647 26.876 29.6879C26.876 42.611 37.3898 53.1248 50.313 53.1248C54.2059 53.1248 58.0619 52.1503 61.4638 50.3066C62.2224 49.8954 62.5043 48.9471 62.093 48.1884C61.6819 47.4297 60.7331 47.1483 59.9748 47.5592C57.0285 49.156 53.6874 49.9999 50.3128 49.9999C39.1127 49.9999 30.0008 40.8881 30.0008 29.6879C30.0008 18.4876 39.1127 9.37579 50.3128 9.37579C61.513 9.37579 70.6249 18.4876 70.6249 29.6879C70.6249 33.0622 69.781 36.4032 68.1843 39.3498C67.7732 40.1086 68.0551 41.0568 68.8138 41.4679Z" fill="#272727"/>
<path d="M66.6778 30.591C67.0613 30.0498 67.0613 29.3256 66.6778 28.7844C63.2817 23.9909 57.0112 21.0131 50.3134 21.0131C43.6155 21.0131 37.3449 23.991 33.9487 28.7844C33.5653 29.3256 33.5653 30.0498 33.9487 30.591C37.3449 35.3845 43.6155 38.3621 50.3134 38.3621C57.0112 38.3621 63.2817 35.3845 66.6778 30.591ZM55.8629 29.6876C55.8629 32.7477 53.3733 35.2374 50.3132 35.2374C47.2533 35.2374 44.7636 32.7477 44.7636 29.6876C44.7636 26.6277 47.2533 24.1381 50.3132 24.1381C53.3733 24.1381 55.8629 26.6277 55.8629 29.6876ZM37.2024 29.6878C38.6075 28.0425 40.4611 26.7046 42.5857 25.7544C41.9818 26.936 41.6388 28.2722 41.6388 29.6876C41.6388 31.1032 41.982 32.4394 42.5859 33.6211C40.4611 32.671 38.6075 31.3331 37.2024 29.6878ZM58.0408 33.621C58.6447 32.4393 58.9879 31.1032 58.9879 29.6875C58.9879 28.272 58.6449 26.9358 58.041 25.7543C60.1655 26.7044 62.019 28.0423 63.4242 29.6876C62.0189 31.3331 60.1655 32.6708 58.0408 33.621Z" fill="#272727"/>
<path d="M50.3125 31.2503H50.3138C51.1766 31.2503 51.8756 30.5506 51.8756 29.6878C51.8756 28.825 51.1755 28.1253 50.3125 28.1253C49.4495 28.1253 48.75 28.825 48.75 29.6878C48.75 30.5506 49.4497 31.2503 50.3125 31.2503Z" fill="#272727"/>
</g>
<defs>
<clipPath id="clip0">
<rect width="80" height="80" fill="white"/>
</clipPath>
</defs>
</svg>
