<svg width="24" height="24" viewBox="0 0 24 24" fill="none" xmlns="http://www.w3.org/2000/svg">
<path d="M0.794075 11.7666C1.05228 11.7666 1.261 11.5578 1.261 11.2996C1.261 8.46772 3.56528 6.16344 6.39719 6.16344H17.6034V10.349L24.0003 5.69652L17.6034 1.04407V5.22959H6.39719C3.05026 5.22959 0.327148 7.9527 0.327148 11.2996C0.327148 11.5578 0.535864 11.7666 0.794075 11.7666ZM18.5373 2.87815L22.4128 5.69652L18.5373 8.51488V2.87815Z" fill="#272727"/>
<path d="M23.2062 12.2335C22.948 12.2335 22.7393 12.4422 22.7393 12.7004C22.7393 15.5323 20.435 17.8366 17.6031 17.8366H6.39689V13.651L0 18.3035L6.39689 22.9559V18.7704H17.6031C20.95 18.7704 23.6732 16.0473 23.6732 12.7004C23.6732 12.4422 23.4644 12.2335 23.2062 12.2335ZM5.46303 21.1219L1.58755 18.3035L5.46303 15.4851V21.1219Z" fill="#272727"/>
</svg>
