<svg width="20" height="20" viewBox="0 0 20 20" fill="none" xmlns="http://www.w3.org/2000/svg">
<g clip-path="url(#clip0)">
<path d="M19.8779 9.70533L13.6279 3.45533C13.4652 3.29256 13.2015 3.29256 13.0387 3.45533C12.876 3.61811 12.876 3.88178 13.0387 4.04451L18.5775 9.58326H0.41668C0.186367 9.58326 0 9.76963 0 9.99994C0 10.2303 0.186367 10.4166 0.41668 10.4166H18.5775L13.0387 15.9553C12.876 16.1181 12.876 16.3818 13.0387 16.5445C13.1201 16.6259 13.2268 16.6666 13.3334 16.6666C13.44 16.6666 13.5466 16.6259 13.628 16.5445L19.878 10.2945C20.0407 10.1318 20.0407 9.86811 19.8779 9.70533Z" fill="#272727"/>
</g>
<defs>
<clipPath id="clip0">
<rect width="20" height="20" fill="white"/>
</clipPath>
</defs>
</svg>
