<svg width="34" height="34" viewBox="0 0 34 34" fill="none" xmlns="http://www.w3.org/2000/svg">
<g clip-path="url(#clip0)">
<path d="M33.7925 16.4992L23.1675 5.87416C22.8908 5.59745 22.4425 5.59745 22.1659 5.87416C21.8892 6.15088 21.8892 6.59912 22.1659 6.87577L31.5818 16.2916H0.708355C0.316824 16.2916 0 16.6085 0 17C0 17.3915 0.316824 17.7084 0.708355 17.7084H31.5818L22.1659 27.1242C21.8892 27.4009 21.8892 27.8491 22.1659 28.1258C22.3042 28.2641 22.4855 28.3333 22.6667 28.3333C22.8479 28.3333 23.0292 28.2641 23.1675 28.1258L33.7925 17.5008C34.0692 17.2241 34.0692 16.7759 33.7925 16.4992Z" fill="white"/>
</g>
<defs>
<clipPath id="clip0">
<rect width="34" height="34" fill="white"/>
</clipPath>
</defs>
</svg>
