<svg width="22" height="22" viewBox="0 0 22 22" fill="none" xmlns="http://www.w3.org/2000/svg">
<path d="M11 4.38399L10.5854 3.76888C10.1968 3.19229 9.75974 2.70405 9.28308 2.30857L9.28305 2.30855C8.34447 1.52972 7.29315 1.14355 6.14571 1.14355C4.59723 1.14355 3.17132 1.80621 2.12436 3.02451L11 4.38399ZM11 4.38399L11.4146 3.7689M11 4.38399L11.4146 3.7689M11.4146 3.7689C11.8034 3.19211 12.2403 2.70402 12.7168 2.30852C13.6556 1.5297 14.7069 1.14355 15.8543 1.14355C17.4028 1.14355 18.8285 1.80621 19.8755 3.02453C20.9133 4.23237 21.5 5.90162 21.5 7.73708C21.5 9.60028 20.8587 11.323 19.4225 13.1822L19.4225 13.1823C18.1229 14.8648 16.2458 16.5831 14.019 18.619L14.019 18.6191L13.9994 18.637C13.2473 19.3248 12.3938 20.1053 11.508 20.9364L11.5078 20.9366C11.3624 21.0732 11.1816 21.1436 11 21.1436C10.8183 21.1436 10.6377 21.0733 10.4919 20.9363L10.4916 20.936C9.59901 20.0987 8.73966 19.3129 7.98359 18.6215L7.98149 18.6196L7.98146 18.6196M11.4146 3.7689L7.98146 18.6196M7.98146 18.6196C5.75441 16.5833 3.87729 14.8648 2.57771 13.1824C1.14142 11.3229 0.5 9.60025 0.5 7.73726C0.5 5.90164 1.08666 4.23239 2.12432 3.02455L7.98146 18.6196Z" stroke="white"/>
</svg>
