<svg width="31" height="18" viewBox="0 0 31 18" fill="none" xmlns="http://www.w3.org/2000/svg">
<path d="M30.9514 1.32754C31.215 2.01684 30.4055 3.62521 28.5228 6.15265C28.2592 6.4973 27.9203 6.95683 27.5061 7.53125C26.6401 8.60349 26.1506 9.31194 26.0376 9.65659C25.8494 10.1161 25.9247 10.5565 26.2635 10.9777C26.4518 11.2075 26.8848 11.6671 27.5626 12.3564H27.6191V12.4138C29.1629 13.8307 30.1984 15.037 30.7255 16.0326L30.8385 16.2624L30.9514 16.6932V17.2389L30.5561 17.6697L29.5959 17.8708L25.4728 17.9856C25.2092 18.0239 24.8986 17.9856 24.5409 17.8708C24.1832 17.7559 23.9102 17.641 23.7219 17.5261L23.383 17.2963C23.0441 17.0666 22.6676 16.7219 22.2534 16.2624C21.8392 15.8029 21.4721 15.3816 21.152 14.9987C20.832 14.6157 20.5025 14.2998 20.1636 14.0509C19.8247 13.802 19.5235 13.7158 19.2599 13.7924C19.2223 13.7924 19.1752 13.8115 19.1187 13.8498C19.0623 13.8881 18.9681 13.9743 18.8363 14.1083C18.7045 14.2424 18.5916 14.4051 18.4974 14.5966C18.4033 14.7881 18.3186 15.0657 18.2433 15.4295C18.168 15.7933 18.1303 16.2241 18.1303 16.7219C18.1303 16.8751 18.1115 17.0187 18.0738 17.1527C18.0362 17.2868 17.9985 17.3921 17.9609 17.4687L17.9044 17.5261C17.6785 17.7559 17.3772 17.8708 17.0007 17.8708H15.1933C14.4026 17.9473 13.6024 17.8708 12.7929 17.641C11.9833 17.4112 11.2773 17.1144 10.6749 16.7506C10.0724 16.3868 9.52642 16.023 9.03692 15.6593C8.54742 15.2955 8.17088 14.9795 7.9073 14.7115L7.51194 14.3094C7.39898 14.2328 7.24836 14.0796 7.06009 13.8498C6.87182 13.6201 6.48587 13.1222 5.90224 12.3564C5.3186 11.5905 4.74438 10.7671 4.17957 9.88636C3.61477 9.00558 2.95583 7.84718 2.20275 6.41113C1.44967 4.97509 0.753077 3.49118 0.112961 1.9594C0.0376538 1.76793 0 1.61475 0 1.49987C0 1.38498 0.0188269 1.28925 0.0564807 1.21266L0.112961 1.15522C0.263577 0.92545 0.564807 0.810566 1.01665 0.810566H5.47863C5.59159 0.810566 5.70456 0.839287 5.81752 0.896729L6.09992 1.04033L6.1564 1.09777C6.34467 1.21266 6.47646 1.38498 6.55177 1.61475C6.77769 2.15087 7.03185 2.71572 7.31426 3.30928C7.59666 3.90285 7.81317 4.35281 7.96378 4.65916L8.18971 5.1187C8.52859 5.7697 8.83924 6.33454 9.12164 6.81323C9.40404 7.29191 9.65821 7.66528 9.88413 7.93334C10.1101 8.2014 10.336 8.41202 10.5619 8.5652C10.7878 8.71838 10.9761 8.79496 11.1267 8.79496C11.2773 8.79496 11.4279 8.77582 11.5786 8.73752L11.635 8.65136L11.8327 8.27799L12.0586 7.53125L12.1998 6.21009V4.14219C12.1622 3.72095 12.1057 3.32843 12.0304 2.96463C11.9551 2.60083 11.8798 2.34235 11.8045 2.18917L11.748 2.01684C11.4844 1.6339 11.0137 1.38498 10.336 1.2701C10.223 1.2701 10.2607 1.13607 10.4489 0.868008C10.6372 0.676536 10.8443 0.523358 11.0702 0.408474C11.635 0.102119 12.9153 -0.0319121 14.9109 0.00638241C15.777 0.00638241 16.5112 0.0829714 17.1137 0.236149C17.3019 0.274444 17.4714 0.341459 17.622 0.437195C17.7726 0.532931 17.8856 0.666962 17.9609 0.839287C18.0362 1.01161 18.0927 1.18394 18.1303 1.35626C18.168 1.52859 18.1868 1.7775 18.1868 2.103V2.99335C18.1491 3.29971 18.1303 3.68265 18.1303 4.14219V5.52079C18.1303 5.63567 18.1209 5.86544 18.1021 6.21009C18.0833 6.55474 18.0738 6.8228 18.0738 7.01427C18.0738 7.20574 18.0927 7.42594 18.1303 7.67485C18.168 7.92377 18.2339 8.13439 18.328 8.30671C18.4221 8.47904 18.5445 8.60349 18.6951 8.68008C18.7704 8.71838 18.8552 8.7471 18.9493 8.76624C19.0434 8.78539 19.1846 8.72795 19.3729 8.59392C19.5612 8.45989 19.7683 8.26842 19.9942 8.0195C20.2201 7.77059 20.5025 7.39722 20.8414 6.89939C21.1803 6.40156 21.538 5.82714 21.9145 5.17614C22.5546 4.0273 23.1383 2.78273 23.6654 1.44243C23.7031 1.36584 23.7502 1.27967 23.8066 1.18394C23.8631 1.0882 23.929 1.02119 24.0043 0.982892H24.0608L24.1173 0.92545L24.3432 0.868008H24.6821L29.3135 0.810566C29.7277 0.772272 30.076 0.791419 30.3584 0.868008C30.6408 0.944597 30.8008 1.04033 30.8385 1.15522L30.9514 1.32754Z" fill="white"/>
</svg>
