<svg width="80" height="80" viewBox="0 0 80 80" fill="none" xmlns="http://www.w3.org/2000/svg">
<g clip-path="url(#clip0)">
<path d="M76.1857 46.8585H74.9885V36.0749C74.9885 34.3677 74.1388 32.8561 72.8411 31.9377V30.4694C72.8411 28.3396 71.1085 26.6069 68.9786 26.6069H68.0847L71.5049 21.5881C72.6513 19.906 72.2154 17.6046 70.5332 16.458L47.3252 0.642365C46.5104 0.0868963 45.5282 -0.118104 44.5588 0.0658025C43.5899 0.249396 42.7504 0.79924 42.195 1.61424L22.1636 31.0085H16.5894L17.9343 17.3944C17.9494 17.241 18.0491 17.108 18.1882 17.0556C19.9208 16.4024 21.4224 15.1824 22.4161 13.6205C22.4944 13.4975 22.6421 13.4272 22.7949 13.4427L31.5379 14.3064C32.1647 14.3672 32.7224 13.9106 32.7843 13.2841C32.8461 12.6575 32.3885 12.0996 31.7619 12.0377L23.0189 11.1739C22.0041 11.0746 21.0363 11.5422 20.4925 12.3966C19.7619 13.545 18.6579 14.4419 17.3839 14.9222C16.425 15.2838 15.7666 16.145 15.6654 17.1702L14.2985 31.0083H12.8449L14.9718 9.47643C15.0483 8.70143 15.74 8.13205 16.516 8.20971L34.1838 9.95502C34.8104 10.0155 35.3683 9.55924 35.4302 8.93268C35.4921 8.30612 35.0344 7.74815 34.4079 7.68627L16.74 5.94096C14.7144 5.74112 12.903 7.22627 12.7029 9.25221L10.9885 26.6069H8.06895C5.93926 26.6069 4.20645 28.3396 4.20645 30.4694V31.471C2.4641 32.2731 1.25098 34.0344 1.25098 36.0749V74.9335C1.25098 77.7272 3.52379 80 6.3177 80H69.9219C72.7157 80 74.9885 77.7272 74.9885 74.9335V64.15H76.1857C77.5988 64.15 78.7483 63.0005 78.7483 61.5875V49.4211C78.7485 48.008 77.5988 46.8585 76.1857 46.8585ZM68.9786 28.8869C69.8514 28.8867 70.5613 29.5967 70.5613 30.4696V31.0503C70.3516 31.0238 70.1386 31.0086 69.9219 31.0086H65.0852L66.531 28.8869H68.9786ZM44.0789 2.89799C44.2914 2.58627 44.6125 2.37596 44.9832 2.30565C45.0718 2.28893 45.1607 2.28049 45.2489 2.28049C45.5297 2.28049 45.8041 2.36455 46.0413 2.52612L69.2493 18.3417C69.8927 18.7803 70.0596 19.6606 69.6211 20.3041L62.3264 31.0081H60.5758L64.1522 25.7602C64.7322 24.9091 64.78 23.826 64.2766 22.9333C63.6075 21.7474 63.3363 20.351 63.5129 19.0011C63.6441 17.9969 63.2022 17.0166 62.3597 16.4425L50.3288 8.24377C49.4861 7.66955 48.4121 7.6169 47.5255 8.10643C46.3341 8.76424 44.9352 9.02252 43.5868 8.83377C42.5868 8.69346 41.5725 9.14502 41.0011 9.9833L26.6732 31.0083H24.9225L44.0789 2.89799ZM44.581 22.256C39.6168 22.256 35.5418 26.1267 35.2097 31.0083H29.4318L42.8847 11.2672C42.8849 11.2672 42.8849 11.2672 42.8849 11.2672C42.9613 11.1549 43.088 11.088 43.2182 11.088C43.2355 11.088 43.2529 11.0892 43.2702 11.0916C45.1043 11.3481 47.0066 10.9972 48.6272 10.1024C48.7547 10.0317 48.9185 10.0419 49.0447 10.1278L61.0758 18.3267C61.2018 18.4127 61.271 18.5614 61.2522 18.7058C61.0121 20.5416 61.3811 22.4406 62.291 24.0535C62.3639 24.183 62.355 24.3489 62.2685 24.4763L57.8172 31.0081H53.9527C53.6204 26.1267 49.5455 22.256 44.581 22.256ZM51.6666 31.0085H37.4955C37.8221 27.3852 40.8743 24.536 44.581 24.536C48.2879 24.5358 51.3402 27.3852 51.6666 31.0085ZM6.48629 30.4694C6.48629 29.5966 7.19613 28.8866 8.06895 28.8866H10.7633L10.5538 31.0083H6.48629V30.4694ZM3.53082 36.0749C3.53082 34.5383 4.78098 33.2882 6.3177 33.2882H69.9219C71.4586 33.2882 72.7086 34.5383 72.7086 36.0749V39.238H3.53082V36.0749ZM72.7086 74.9335C72.7086 76.47 71.4586 77.7202 69.9219 77.7202H6.3177C4.78098 77.7202 3.53082 76.47 3.53082 74.9335V71.7703H9.67801C10.3077 71.7703 10.8179 71.26 10.8179 70.6305C10.8179 70.001 10.3075 69.4907 9.67801 69.4907H3.53082V41.5178H72.7086V46.8585H61.8702H61.87C58.455 46.8585 55.4969 48.8491 54.093 51.7305C54.0883 51.7402 54.083 51.7496 54.0782 51.7592C54.0663 51.7838 54.056 51.8092 54.0444 51.8339C53.8772 52.1891 53.7319 52.5567 53.6136 52.9361C53.6133 52.9372 53.613 52.9382 53.6127 52.9392C53.3604 53.75 53.2243 54.6114 53.2243 55.5042C53.2243 60.2716 57.1027 64.15 61.8699 64.15H61.87H72.7085V69.4907H16.9771C16.3474 69.4907 15.8372 70.001 15.8372 70.6305C15.8372 71.26 16.3475 71.7703 16.9771 71.7703H72.7086V74.9335ZM76.4686 61.5874C76.4686 61.7433 76.3418 61.8702 76.1857 61.8702H61.8703C59.4571 61.8702 57.353 60.5203 56.2738 58.5361C56.2247 58.446 56.1779 58.3544 56.133 58.2617C56.0435 58.0763 55.9627 57.8858 55.8913 57.6908C55.641 57.0086 55.5044 56.2721 55.5044 55.5042C55.5044 54.7364 55.6411 53.9999 55.8913 53.3177C55.9629 53.1228 56.0436 52.9324 56.133 52.7467C56.1779 52.6541 56.2247 52.5625 56.2738 52.4724C57.353 50.4882 59.4571 49.1383 61.8703 49.1383H76.1857C76.3416 49.1383 76.4686 49.2652 76.4686 49.4211V61.5874Z" fill="#272727"/>
<path d="M62.1377 50.8792C59.5874 50.8792 57.5127 52.9541 57.5127 55.5042C57.5127 58.0544 59.5874 60.1291 62.1377 60.1291C64.688 60.1291 66.7627 58.0544 66.7627 55.5042C66.7627 52.9541 64.688 50.8792 62.1377 50.8792ZM62.1377 57.8492C60.8446 57.8492 59.7925 56.7972 59.7925 55.5042C59.7925 54.2112 60.8446 53.1591 62.1377 53.1591C63.4308 53.1591 64.4829 54.2111 64.4829 55.5042C64.4829 56.7973 63.4308 57.8492 62.1377 57.8492Z" fill="#272727"/>
</g>
<defs>
<clipPath id="clip0">
<rect width="80" height="80" fill="white"/>
</clipPath>
</defs>
</svg>
