<svg xmlns="http://www.w3.org/2000/svg"
 xmlns:xlink="http://www.w3.org/1999/xlink"
 width="30px" height="29px"  viewBox="0 0 30 29">
<path fill-rule="evenodd"  fill="#ffffff"
 d="M3.3148193,1.9998665 C3.3148193,1.9998665 6.4350586,1.9998665 6.4350586,1.9998665 C7.161255,1.9998665 7.749878,2.5884895 7.749878,3.3146744 C7.749878,3.3146744 7.749878,3.4038696 7.749878,3.4038696 C7.749878,4.1300545 7.161255,4.7186775 6.4350586,4.7186775 C6.4350586,4.7186775 3.3148193,4.7186775 3.3148193,4.7186775 C2.588623,4.7186775 2.0,4.1300545 2.0,3.4038696 C2.0,3.4038696 2.0,3.3146744 2.0,3.3146744 C2.0,2.5884895 2.588623,1.9998665 3.3148193,1.9998665 ZM6.753418,4.6249275 C6.753418,4.6249275 26.715332,4.6249275 26.715332,4.6249275 C27.407593,4.6249275 27.968628,5.186039 27.968628,5.8784027 C27.968628,5.8784027 27.968628,5.9653206 27.968628,5.9653206 C27.968628,6.657509 27.407593,7.2186203 26.715332,7.2186203 C26.715332,7.2186203 6.753418,7.2186203 6.753418,7.2186203 C6.061157,7.2186203 5.499878,6.657509 5.499878,5.9653206 C5.499878,5.9653206 5.499878,5.8784027 5.499878,5.8784027 C5.499878,5.186039 6.061157,4.6249275 6.753418,4.6249275 ZM7.732666,5.265419 C7.732666,5.265419 10.292358,22.12188 10.292358,22.12188 C10.402222,22.801102 9.939453,23.44072 9.258545,23.550419 C9.258545,23.550419 9.135254,23.57022 9.135254,23.57022 C8.454468,23.67992 7.8134766,23.218166 7.703491,22.538773 C7.703491,22.538773 5.143799,5.682312 5.143799,5.682312 C5.0339355,5.00309 5.496704,4.363472 6.1776123,4.253948 C6.1776123,4.253948 6.3009033,4.2339706 6.3009033,4.2339706 C6.9816895,4.124447 7.6228027,4.5862007 7.732666,5.265419 ZM8.448486,15.781082 C8.448486,15.781082 25.145142,15.781082 25.145142,15.781082 C25.876099,15.781082 26.468628,16.373734 26.468628,17.104652 C26.468628,17.104652 26.468628,17.207691 26.468628,17.207691 C26.468628,17.938606 25.876099,18.531086 25.145142,18.531086 C25.145142,18.531086 8.448486,18.531086 8.448486,18.531086 C7.7175293,18.531086 7.125,17.938606 7.125,17.207691 C7.125,17.207691 7.125,17.104652 7.125,17.104652 C7.125,16.373734 7.7175293,15.781082 8.448486,15.781082 ZM8.9375,21.062393 C8.9375,21.062393 23.656128,21.062393 23.656128,21.062393 C24.312012,21.062393 24.84375,21.594067 24.84375,22.24998 C24.84375,22.24998 24.84375,22.374924 24.84375,22.374924 C24.84375,23.030663 24.312012,23.562336 23.656128,23.562336 C23.656128,23.562336 8.9375,23.562336 8.9375,23.562336 C8.281616,23.562336 7.749878,23.030663 7.749878,22.374924 C7.749878,22.374924 7.749878,22.24998 7.749878,22.24998 C7.749878,21.594067 8.281616,21.062393 8.9375,21.062393 ZM23.779175,17.11026 C23.779175,17.11026 25.282959,7.792698 25.282959,7.792698 C25.375244,7.1108475 26.003906,6.6326256 26.6875,6.7246246 C26.6875,6.7246246 26.934937,6.7579193 26.934937,6.7579193 C27.618408,6.8499184 28.097778,7.477268 28.005615,8.159119 C28.005615,8.159119 26.501709,17.476505 26.501709,17.476505 C26.409546,18.158356 25.780762,18.636578 25.09729,18.544579 C25.09729,18.544579 24.849854,18.511284 24.849854,18.511284 C24.166382,18.41946 23.687012,17.79211 23.779175,17.11026 ZM11.062378,25.187489 C12.132446,25.187489 12.999878,25.81694 12.999878,26.593594 C12.999878,27.370247 12.132446,27.999878 11.062378,27.999878 C9.992432,27.999878 9.124878,27.370247 9.124878,26.593594 C9.124878,25.81694 9.992432,25.187489 11.062378,25.187489 ZM23.03125,25.187489 C24.101196,25.187489 24.96875,25.81694 24.96875,26.593594 C24.96875,27.370247 24.101196,27.999878 23.03125,27.999878 C21.961182,27.999878 21.09375,27.370247 21.09375,26.593594 C21.09375,25.81694 21.961182,25.187489 23.03125,25.187489 ZM13.715332,6.4999695 C13.715332,6.4999695 13.722168,6.4999695 13.722168,6.4999695 C13.996338,6.4999695 14.21875,6.722172 14.21875,6.996418 C14.21875,6.996418 14.21875,16.565971 14.21875,16.565971 C14.21875,16.840042 13.996338,17.06242 13.722168,17.06242 C13.722168,17.06242 13.715332,17.06242 13.715332,17.06242 C13.440918,17.06242 13.21875,16.840042 13.21875,16.565971 C13.21875,16.565971 13.21875,6.996418 13.21875,6.996418 C13.21875,6.722172 13.440918,6.4999695 13.715332,6.4999695 ZM18.999878,6.4999695 C19.276123,6.4999695 19.499878,6.7237473 19.499878,6.9999237 C19.499878,6.9999237 19.499878,16.562466 19.499878,16.562466 C19.499878,16.838642 19.276123,17.06242 18.999878,17.06242 C18.723755,17.06242 18.499878,16.838642 18.499878,16.562466 C18.499878,16.562466 18.499878,6.9999237 18.499878,6.9999237 C18.499878,6.7237473 18.723755,6.4999695 18.999878,6.4999695 ZM8.732056,11.249962 C8.732056,11.249962 25.361572,11.249962 25.361572,11.249962 C25.62793,11.249962 25.84375,11.465679 25.84375,11.73204 C25.84375,11.73204 25.84375,11.799156 25.84375,11.799156 C25.84375,12.065342 25.62793,12.281235 25.361572,12.281235 C25.361572,12.281235 8.732056,12.281235 8.732056,12.281235 C8.465698,12.281235 8.249878,12.065342 8.249878,11.799156 C8.249878,11.799156 8.249878,11.73204 8.249878,11.73204 C8.249878,11.465679 8.465698,11.249962 8.732056,11.249962 Z"/>
</svg>