<svg xmlns="http://www.w3.org/2000/svg"
 xmlns:xlink="http://www.w3.org/1999/xlink"
 width="224px" height="159px"  viewBox="0 0 224 159">
<path fill-rule="evenodd"  fill="#fcff19"
 d="M2.999878,27.9999 C2.999878,27.9999 2.999878,11.999828 2.999878,11.999828 C2.999878,6.4770393 7.477051,1.9998913 13.0,1.9998913 C13.0,1.9998913 88.0,1.9998913 88.0,1.9998913 C93.52283,1.9998913 97.99988,6.4770393 97.99988,11.999828 C97.99988,11.999828 97.99988,27.9999 97.99988,27.9999 C97.99988,33.522694 2.999878,33.522694 2.999878,27.9999 ZM13.0,14.999897 C13.0,14.999897 88.0,14.999897 88.0,14.999897 C93.52283,14.999897 97.99988,19.477043 97.99988,24.999832 C97.99988,24.999832 97.99988,147.99985 97.99988,147.99985 C97.99988,153.52281 93.52283,157.99995 88.0,157.99995 C88.0,157.99995 13.0,157.99995 13.0,157.99995 C7.477051,157.99995 2.999878,153.52281 2.999878,147.99985 C2.999878,147.99985 2.999878,24.999832 2.999878,24.999832 C2.999878,19.477043 1.1390381,15.281681 13.0,14.999897 ZM13.0,47.999954 C13.0,47.999954 212.99988,47.999954 212.99988,47.999954 C218.52283,47.999954 223.0,52.477097 223.0,57.999886 C223.0,57.999886 223.0,147.99985 223.0,147.99985 C223.0,153.52281 218.52283,157.99995 212.99988,157.99995 C212.99988,157.99995 13.0,157.99995 13.0,157.99995 C7.477051,157.99995 2.999878,153.52281 2.999878,147.99985 C2.999878,147.99985 2.999878,57.999886 2.999878,57.999886 C2.999878,52.477097 7.477051,47.999954 13.0,47.999954 Z"/>
</svg>