<svg xmlns="http://www.w3.org/2000/svg"
 xmlns:xlink="http://www.w3.org/1999/xlink"
 width="69px" height="81px"  viewBox="0 0 69 81">
<path fill-rule="evenodd"  fill="#fcff19"
 d="M57.283447,45.537354 C53.071716,45.537354 49.429382,43.106995 47.677734,39.573547 C43.336,46.62018 35.550476,51.319702 26.664917,51.319702 C13.042786,51.319702 1.999939,40.279053 1.999939,26.659729 C1.999939,13.040405 13.042786,1.999939 26.664917,1.999939 C40.040894,1.999939 50.92218,12.647034 51.31128,25.926025 C53.017944,24.778748 55.072266,24.108765 57.283447,24.108765 C63.202026,24.108765 67.99994,28.905762 67.99994,34.822998 C67.99994,40.740417 63.202026,45.537354 57.283447,45.537354 ZM4.7215576,26.659729 C4.7215576,38.776184 14.545959,48.598633 26.664917,48.598633 C35.52289,48.598633 43.147522,43.347412 46.61267,35.791687 C46.584045,35.472412 46.567017,35.14984 46.567017,34.822998 C46.567017,34.106262 46.638733,33.406555 46.77301,32.729248 C46.77301,32.729248 29.03717,28.870728 29.03717,28.870728 C29.03717,28.870728 28.619324,28.870728 28.619324,28.870728 C28.14087,29.28955 27.520935,29.550964 26.83496,29.550964 C25.33191,29.550964 24.113342,28.332703 24.113342,26.829895 C24.113342,25.772339 24.717957,24.85791 25.599243,24.407593 C25.29309,24.26123 25.123535,24.183777 25.49591,24.183289 C25.49591,24.183289 25.626587,24.39441 25.626587,24.39441 C25.640198,24.387573 25.65393,24.381104 25.667664,24.374634 C25.667664,24.374634 25.555786,24.182373 25.555786,24.182373 C25.661377,24.18451 25.767273,24.196411 25.872864,24.210754 C25.872864,24.210754 26.146057,23.73767 26.146057,23.73767 C26.146057,23.73767 26.308105,23.831238 26.308105,23.831238 C26.308105,23.831238 33.937622,5.960144 33.937622,5.960144 C31.661072,5.1605225 29.214905,4.7210083 26.664917,4.7210083 C14.545959,4.7210083 4.7215576,14.543274 4.7215576,26.659729 ZM36.685608,7.144226 C36.685608,7.144226 28.821655,24.983215 28.821655,24.983215 C28.959229,25.131836 29.083618,25.292847 29.185852,25.46936 C29.185852,25.46936 29.21637,25.46936 29.21637,25.46936 C29.21637,25.46936 29.21637,25.52069 29.21637,25.52069 C29.267456,25.61322 29.309998,25.710815 29.350525,25.809448 C29.350525,25.809448 29.89685,25.809448 29.89685,25.809448 C29.89685,25.809448 29.89685,25.99646 29.89685,25.99646 C29.89685,25.99646 47.63861,30.148865 47.63861,30.148865 C47.888306,29.634766 48.179565,29.144958 48.505188,28.680725 C48.56732,28.014648 48.608154,27.342285 48.608154,26.659729 C48.608154,18.154053 43.76355,10.784607 36.685608,7.144226 ZM57.453552,26.829895 C52.944214,26.829895 49.288635,30.48462 49.288635,34.993164 C49.288635,39.501465 52.944214,43.156433 57.453552,43.156433 C61.96295,43.156433 65.61853,39.501465 65.61853,34.993164 C65.61853,30.48462 61.96295,26.829895 57.453552,26.829895 ZM57.283447,36.3537 C56.625793,36.3537 56.092712,35.820618 56.092712,35.163147 C56.092712,34.505615 56.625793,33.972717 57.283447,33.972717 C57.94104,33.972717 58.47412,34.505615 58.47412,35.163147 C58.47412,35.820618 57.94104,36.3537 57.283447,36.3537 ZM56.78119,35.343628 C56.78119,35.343628 57.78119,35.343628 57.78119,35.343628 C57.78119,35.343628 57.78119,51.687317 57.78119,51.687317 C57.78119,51.687317 56.78119,51.687317 56.78119,51.687317 C56.78119,51.687317 56.78119,35.343628 56.78119,35.343628 ZM56.78119,50.999878 C56.78119,50.999878 62.21875,50.999878 62.21875,50.999878 C62.21875,50.999878 62.21875,52.0 62.21875,52.0 C62.21875,52.0 56.78119,52.0 56.78119,52.0 C56.78119,52.0 56.78119,50.999878 56.78119,50.999878 ZM35.16217,78.39307 C34.424377,77.60095 34.424377,76.31683 35.16217,75.52472 C35.16217,75.52472 39.777344,70.570435 39.777344,70.570435 C40.515137,69.7785 41.711365,69.7785 42.44928,70.570435 C43.187134,71.36249 43.187134,72.64685 42.44928,73.43872 C42.44928,73.43872 37.833984,78.39307 37.833984,78.39307 C37.096313,79.18512 35.899963,79.18512 35.16217,78.39307 ZM35.16217,78.39307 C35.16217,78.39307 30.546997,73.43872 30.546997,73.43872 C29.809204,72.64685 29.809204,71.36249 30.546997,70.570435 C31.28479,69.7785 32.481018,69.7785 33.218933,70.570435 C33.218933,70.570435 37.833984,75.52472 37.833984,75.52472 C38.5719,76.31683 38.5719,77.60095 37.833984,78.39307 C37.096313,79.18512 35.899963,79.18512 35.16217,78.39307 ZM36.5,63.0 C37.32843,63.0 37.99994,63.67151 37.99994,64.49988 C37.99994,64.49988 37.99994,68.5 37.99994,68.5 C37.99994,69.32837 37.32843,69.99988 36.5,69.99988 C35.67151,69.99988 35.0,69.32837 35.0,68.5 C35.0,68.5 35.0,64.49988 35.0,64.49988 C35.0,63.67151 35.67151,63.0 36.5,63.0 ZM36.5,52.999878 C37.32843,52.999878 37.99994,53.67157 37.99994,54.49994 C37.99994,54.49994 37.99994,59.49994 37.99994,59.49994 C37.99994,60.32831 37.32843,60.999817 36.5,60.999817 C35.67151,60.999817 35.0,60.32831 35.0,59.49994 C35.0,59.49994 35.0,54.49994 35.0,54.49994 C35.0,53.67157 35.67151,52.999878 36.5,52.999878 Z"/>
</svg>