<svg xmlns="http://www.w3.org/2000/svg"
 xmlns:xlink="http://www.w3.org/1999/xlink"
 width="163px" height="35px"  viewBox="0 0 163 35">
<path fill-rule="evenodd"  fill="#ffffff"
 d="M11.9999695,1.9999352 C11.9999695,1.9999352 151.99988,1.9999352 151.99988,1.9999352 C157.52283,1.9999352 162.0,6.4770813 162.0,11.99987 C162.0,11.99987 162.0,23.99997 162.0,23.99997 C162.0,29.522758 157.52283,33.99991 151.99988,33.99991 C151.99988,33.99991 11.9999695,33.99991 11.9999695,33.99991 C6.477051,33.99991 1.9999084,29.522758 1.9999084,23.99997 C1.9999084,23.99997 1.9999084,11.99987 1.9999084,11.99987 C1.9999084,6.4770813 6.477051,1.9999352 11.9999695,1.9999352 ZM152.6012,18.27636 C151.7893,19.224747 150.45886,19.268906 149.7597,19.268906 C149.7597,19.268906 148.13617,19.268906 148.13617,19.268906 C148.13617,19.268906 148.13617,26.37006 148.13617,26.37006 C148.13617,26.37006 147.03113,26.37006 147.03113,26.37006 C147.03113,26.37006 147.03113,10.800369 147.03113,10.800369 C147.03113,10.800369 149.51172,10.800369 149.51172,10.800369 C150.48138,10.800369 151.5639,10.75621 152.37573,11.417732 C153.23267,12.101509 153.23267,13.115959 153.23267,14.262714 C153.23267,14.262714 153.23267,16.027008 153.23267,16.027008 C153.23267,16.864994 153.21002,17.570679 152.6012,18.27636 ZM152.15015,16.027008 C152.15015,16.027008 152.15015,14.681709 152.15015,14.681709 C152.15015,13.292423 152.12762,12.542583 151.49615,12.07943 C151.09033,11.77066 150.72949,11.704422 149.80493,11.704422 C149.80493,11.704422 148.11359,11.704422 148.11359,11.704422 C148.11359,11.704422 148.11359,18.364677 148.11359,18.364677 C148.11359,18.364677 149.91766,18.364677 149.91766,18.364677 C150.52649,18.364677 151.15796,18.298439 151.63153,17.813381 C152.24036,17.217922 152.15015,16.159313 152.15015,16.027008 ZM136.67932,26.568604 C136.36359,26.568604 134.98804,26.546524 134.19873,25.62022 C133.56726,24.848297 133.49963,23.966152 133.49963,23.04002 C133.49963,23.04002 133.49963,14.262714 133.49963,14.262714 C133.49963,14.08625 133.49963,13.204105 133.74774,12.498425 C134.19873,11.197285 135.43903,10.601826 136.79205,10.623905 C137.51373,10.623905 138.23529,10.77829 138.82166,11.197285 C139.94916,12.035271 139.94916,13.380569 139.94916,14.593563 C139.94916,14.593563 139.94916,23.194405 139.94916,23.194405 C139.94916,23.922165 139.88153,24.583687 139.47559,25.223305 C139.13733,25.796684 138.30292,26.568604 136.67932,26.568604 ZM138.88934,15.189022 C138.88934,13.887707 138.82166,13.159946 138.50592,12.564663 C138.41577,12.388199 138.23529,12.05735 137.7843,11.836903 C137.62646,11.748581 137.2431,11.594196 136.72443,11.594196 C136.09296,11.594196 135.68701,11.814819 135.50665,11.925045 C134.53699,12.542583 134.58209,13.777481 134.58209,14.042091 C134.58209,14.042091 134.58209,22.621025 134.58209,22.621025 C134.58209,23.503174 134.6272,23.988232 134.76245,24.385143 C134.92041,24.804314 135.48413,25.598137 136.74701,25.598137 C137.198,25.598137 137.62646,25.487915 137.9873,25.223305 C138.84424,24.62785 138.88934,23.679462 138.88934,22.77541 C138.88934,22.77541 138.88934,15.189022 138.88934,15.189022 ZM125.35785,18.673447 C125.35785,18.673447 121.25354,18.673447 121.25354,18.673447 C121.25354,18.673447 121.25354,26.37006 121.25354,26.37006 C121.25354,26.37006 120.17114,26.37006 120.17114,26.37006 C120.17114,26.37006 120.17114,10.800369 120.17114,10.800369 C120.17114,10.800369 121.25354,10.800369 121.25354,10.800369 C121.25354,10.800369 121.25354,17.72506 121.25354,17.72506 C121.25354,17.72506 125.35785,17.72506 125.35785,17.72506 C125.35785,17.72506 125.35785,10.800369 125.35785,10.800369 C125.35785,10.800369 126.46289,10.800369 126.46289,10.800369 C126.46289,10.800369 126.46289,26.37006 126.46289,26.37006 C126.46289,26.37006 125.35785,26.37006 125.35785,26.37006 C125.35785,26.37006 125.35785,18.673447 125.35785,18.673447 ZM110.76636,18.166134 C111.33014,18.717434 111.89398,19.246826 112.390076,19.86419 C113.17938,20.834652 113.404785,21.694721 113.404785,22.929619 C113.404785,24.230934 113.1568,25.002682 112.841064,25.465836 C112.4577,26.017132 111.668396,26.61259 110.13501,26.61259 C109.52606,26.61259 108.804504,26.502365 108.30829,26.237755 C108.19559,26.171516 108.01523,26.06129 107.78967,25.862747 C107.42883,25.553978 107.18085,25.201225 107.00037,24.738071 C106.84253,24.297 106.82001,23.944244 106.82001,23.481094 C106.82001,23.481094 106.82001,21.275726 106.82001,21.275726 C106.82001,21.275726 107.92505,21.275726 107.92505,21.275726 C107.92505,21.275726 107.92505,22.532707 107.92505,22.532707 C107.92505,22.863556 107.902374,23.172325 107.92505,23.503174 C107.97012,24.252838 108.21814,25.66438 110.27026,25.66438 C110.45062,25.66438 110.94684,25.66438 111.42041,25.37769 C111.98413,25.04684 112.299866,24.385143 112.299866,23.106083 C112.299866,21.893265 112.029236,21.341793 111.73602,20.878815 C111.14978,19.996666 110.089905,19.00412 109.93201,18.871819 C109.007416,17.98967 108.443695,17.372307 108.10541,16.909157 C107.722015,16.40184 107.20337,15.519695 107.20337,14.020187 C107.20337,13.931866 107.20337,13.292423 107.29355,12.851353 C107.451355,11.969204 107.97012,10.579746 110.20264,10.579746 C110.45062,10.579746 111.35278,10.579746 112.07434,11.020821 C113.17938,11.726501 113.17938,13.049721 113.17938,14.174572 C113.17938,14.174572 113.17938,15.299248 113.17938,15.299248 C113.17938,15.299248 112.09686,15.299248 112.09686,15.299248 C112.09686,15.299248 112.09686,13.909786 112.09686,13.909786 C112.09686,13.35849 112.09686,13.182026 112.029236,12.873257 C111.93909,12.34404 111.60077,11.506054 110.22522,11.506054 C110.06738,11.506054 109.548615,11.506054 109.097595,11.77066 C108.6015,12.07943 108.30829,12.696968 108.30829,13.843723 C108.30829,15.321327 108.71423,15.916782 109.68399,16.9973 C110.022156,17.39421 110.382996,17.769222 110.76636,18.166134 ZM87.53763,17.769222 C87.53763,17.769222 91.2811,17.769222 91.2811,17.769222 C91.2811,17.769222 91.2811,18.717434 91.2811,18.717434 C91.2811,18.717434 87.53763,18.717434 87.53763,18.717434 C87.53763,18.717434 87.53763,25.399769 87.53763,25.399769 C87.53763,25.399769 92.070404,25.399769 92.070404,25.399769 C92.070404,25.399769 92.070404,26.37006 92.070404,26.37006 C92.070404,26.37006 86.45523,26.37006 86.45523,26.37006 C86.45523,26.37006 86.45523,10.800369 86.45523,10.800369 C86.45523,10.800369 92.09296,10.800369 92.09296,10.800369 C92.09296,10.800369 92.09296,11.77066 92.09296,11.77066 C92.09296,11.77066 87.53763,11.77066 87.53763,11.77066 C87.53763,11.77066 87.53763,17.769222 87.53763,17.769222 ZM79.102875,26.37006 C79.102875,26.37006 76.19391,18.298439 76.19391,18.298439 C76.19391,18.298439 75.02121,20.459644 75.02121,20.459644 C75.02121,20.459644 75.02121,26.37006 75.02121,26.37006 C75.02121,26.37006 73.93872,26.37006 73.93872,26.37006 C73.93872,26.37006 73.93872,10.800369 73.93872,10.800369 C73.93872,10.800369 75.04376,10.800369 75.04376,10.800369 C75.04376,10.800369 75.04376,18.430744 75.04376,18.430744 C75.04376,18.430744 79.012695,10.800369 79.012695,10.800369 C79.012695,10.800369 80.25299,10.800369 80.25299,10.800369 C80.25299,10.800369 76.87036,16.9973 76.87036,16.9973 C76.87036,16.9973 80.298096,26.37006 80.298096,26.37006 C80.298096,26.37006 79.102875,26.37006 79.102875,26.37006 ZM65.66211,10.800369 C65.66211,10.800369 66.812256,10.800369 66.812256,10.800369 C66.812256,10.800369 66.812256,26.37006 66.812256,26.37006 C66.812256,26.37006 65.66211,26.37006 65.66211,26.37006 C65.66211,26.37006 65.66211,10.800369 65.66211,10.800369 ZM55.896545,26.37006 C55.896545,26.37006 52.71692,26.37006 52.71692,26.37006 C52.71692,26.37006 52.71692,10.800369 52.71692,10.800369 C52.71692,10.800369 55.73871,10.800369 55.73871,10.800369 C55.986816,10.800369 57.11432,10.712051 57.790894,11.461891 C58.241882,11.969204 58.33206,12.630726 58.33206,13.248264 C58.33206,13.248264 58.33206,15.563854 58.33206,15.563854 C58.33206,15.67408 58.354614,16.225376 58.21936,16.622467 C57.85852,17.72506 56.798676,17.857365 56.46039,17.923607 C56.685852,17.945686 57.565308,18.033829 58.151703,18.519062 C58.87326,19.114521 58.895813,19.996666 58.895813,20.812572 C58.895813,20.812572 58.895813,23.481094 58.895813,23.481094 C58.895813,24.31908 58.805634,25.091 58.10663,25.708363 C57.272217,26.414219 56.21228,26.37006 55.896545,26.37006 ZM57.249695,15.321327 C57.249695,15.321327 57.249695,13.446808 57.249695,13.446808 C57.249695,13.005737 57.204468,12.719048 57.13684,12.542583 C56.84375,11.748581 55.919067,11.726501 55.220093,11.726501 C55.220093,11.726501 53.82196,11.726501 53.82196,11.726501 C53.82196,11.726501 53.82196,17.504612 53.82196,17.504612 C53.82196,17.504612 54.904327,17.504612 54.904327,17.504612 C55.513275,17.504612 55.67108,17.460453 55.986816,17.372307 C57.339874,16.97522 57.249695,15.696159 57.249695,15.321327 ZM57.790894,20.790493 C57.790894,20.41566 57.76834,20.062733 57.65561,19.731884 C57.227142,18.585129 56.03192,18.452824 54.971985,18.452824 C54.971985,18.452824 53.844482,18.452824 53.844482,18.452824 C53.844482,18.452824 53.844482,25.421673 53.844482,25.421673 C53.844482,25.421673 55.716187,25.421673 55.716187,25.421673 C56.505493,25.421673 56.866302,25.289371 57.181946,25.06892 C57.700684,24.672009 57.790894,24.142616 57.790894,22.995861 C57.790894,22.995861 57.790894,20.790493 57.790894,20.790493 ZM37.561737,17.769222 C37.561737,17.769222 41.305206,17.769222 41.305206,17.769222 C41.305206,17.769222 41.305206,18.717434 41.305206,18.717434 C41.305206,18.717434 37.561737,18.717434 37.561737,18.717434 C37.561737,18.717434 37.561737,25.399769 37.561737,25.399769 C37.561737,25.399769 42.09439,25.399769 42.09439,25.399769 C42.09439,25.399769 42.09439,26.37006 42.09439,26.37006 C42.09439,26.37006 36.479248,26.37006 36.479248,26.37006 C36.479248,26.37006 36.479248,10.800369 36.479248,10.800369 C36.479248,10.800369 42.117065,10.800369 42.117065,10.800369 C42.117065,10.800369 42.117065,11.77066 42.117065,11.77066 C42.117065,11.77066 37.561737,11.77066 37.561737,11.77066 C37.561737,11.77066 37.561737,17.769222 37.561737,17.769222 ZM28.224731,18.673447 C28.224731,18.673447 24.120422,18.673447 24.120422,18.673447 C24.120422,18.673447 24.120422,26.37006 24.120422,26.37006 C24.120422,26.37006 23.038025,26.37006 23.038025,26.37006 C23.038025,26.37006 23.038025,10.800369 23.038025,10.800369 C23.038025,10.800369 24.120422,10.800369 24.120422,10.800369 C24.120422,10.800369 24.120422,17.72506 24.120422,17.72506 C24.120422,17.72506 28.224731,17.72506 28.224731,17.72506 C28.224731,17.72506 28.224731,10.800369 28.224731,10.800369 C28.224731,10.800369 29.32965,10.800369 29.32965,10.800369 C29.32965,10.800369 29.32965,26.37006 29.32965,26.37006 C29.32965,26.37006 28.224731,26.37006 28.224731,26.37006 C28.224731,26.37006 28.224731,18.673447 28.224731,18.673447 ZM14.197479,26.37006 C14.197479,26.37006 13.069885,26.37006 13.069885,26.37006 C13.069885,26.37006 13.069885,11.77066 13.069885,11.77066 C13.069885,11.77066 10.296173,11.77066 10.296173,11.77066 C10.296173,11.77066 10.296173,10.800369 10.296173,10.800369 C10.296173,10.800369 17.016266,10.800369 17.016266,10.800369 C17.016266,10.800369 17.016266,11.77066 17.016266,11.77066 C17.016266,11.77066 14.197479,11.77066 14.197479,11.77066 C14.197479,11.77066 14.197479,26.37006 14.197479,26.37006 Z"/>
</svg>