<svg xmlns="http://www.w3.org/2000/svg"
 xmlns:xlink="http://www.w3.org/1999/xlink"
 width="118px" height="26px"  viewBox="0 0 118 26">
<path fill-rule="evenodd"  fill="#000000"
 d="M11.9999695,1.96875 C11.9999695,1.96875 106.99991,1.96875 106.99991,1.96875 C112.52283,1.96875 117.0,6.445801 117.0,11.96875 C117.0,11.96875 117.0,15.0 117.0,15.0 C117.0,20.522705 112.52283,24.999756 106.99991,24.999756 C106.99991,24.999756 11.9999695,24.999756 11.9999695,24.999756 C6.477051,24.999756 1.9999084,20.522705 1.9999084,15.0 C1.9999084,15.0 1.9999084,11.96875 1.9999084,11.96875 C1.9999084,6.445801 6.477051,1.96875 11.9999695,1.96875 ZM110.24451,13.678955 C109.66101,14.361572 108.70471,14.393555 108.20221,14.393555 C108.20221,14.393555 107.03528,14.393555 107.03528,14.393555 C107.03528,14.393555 107.03528,19.506348 107.03528,19.506348 C107.03528,19.506348 106.24103,19.506348 106.24103,19.506348 C106.24103,19.506348 106.24103,8.296143 106.24103,8.296143 C106.24103,8.296143 108.02405,8.296143 108.02405,8.296143 C108.72098,8.296143 109.49896,8.264404 110.08246,8.7404785 C110.698425,9.23291 110.698425,9.963379 110.698425,10.7890625 C110.698425,10.7890625 110.698425,12.059326 110.698425,12.059326 C110.698425,12.662842 110.68213,13.170898 110.24451,13.678955 ZM109.92032,12.059326 C109.92032,12.059326 109.92032,11.09082 109.92032,11.09082 C109.92032,10.090332 109.904175,9.550537 109.45032,9.217041 C109.1586,8.994873 108.89929,8.9470215 108.23471,8.9470215 C108.23471,8.9470215 107.019135,8.9470215 107.019135,8.9470215 C107.019135,8.9470215 107.019135,13.742432 107.019135,13.742432 C107.019135,13.742432 108.315735,13.742432 108.315735,13.742432 C108.75336,13.742432 109.207245,13.694824 109.54758,13.345459 C109.9852,12.916748 109.92032,12.154541 109.92032,12.059326 ZM98.80078,19.649414 C98.57373,19.649414 97.58508,19.6333 97.01779,18.966309 C96.5639,18.410645 96.51529,17.77539 96.51529,17.108643 C96.51529,17.108643 96.51529,10.7890625 96.51529,10.7890625 C96.51529,10.662109 96.51529,10.026855 96.69357,9.518799 C97.01779,8.582031 97.9093,8.153076 98.88168,8.169189 C99.40045,8.169189 99.9191,8.280273 100.340576,8.582031 C101.15094,9.185303 101.15094,10.153809 101.15094,11.027344 C101.15094,11.027344 101.15094,17.219727 101.15094,17.219727 C101.15094,17.743896 101.102295,18.220215 100.810486,18.680664 C100.56741,19.093506 99.96762,19.649414 98.80078,19.649414 ZM100.3891,11.456055 C100.3891,10.519043 100.340576,9.995117 100.113525,9.566406 C100.04877,9.439453 99.9191,9.201172 99.59488,9.04248 C99.481476,8.979004 99.2059,8.86792 98.83316,8.86792 C98.3793,8.86792 98.08746,9.026611 97.957825,9.105957 C97.26099,9.550537 97.293365,10.439697 97.293365,10.630127 C97.293365,10.630127 97.293365,16.807129 97.293365,16.807129 C97.293365,17.442139 97.325745,17.791504 97.42291,18.077148 C97.53644,18.378906 97.94168,18.950684 98.849304,18.950684 C99.17352,18.950684 99.481476,18.871338 99.74078,18.680664 C100.35672,18.251953 100.3891,17.569092 100.3891,16.918213 C100.3891,16.918213 100.3891,11.456055 100.3891,11.456055 ZM90.66333,13.964844 C90.66333,13.964844 87.71341,13.964844 87.71341,13.964844 C87.71341,13.964844 87.71341,19.506348 87.71341,19.506348 C87.71341,19.506348 86.935425,19.506348 86.935425,19.506348 C86.935425,19.506348 86.935425,8.296143 86.935425,8.296143 C86.935425,8.296143 87.71341,8.296143 87.71341,8.296143 C87.71341,8.296143 87.71341,13.281982 87.71341,13.281982 C87.71341,13.281982 90.66333,13.281982 90.66333,13.281982 C90.66333,13.281982 90.66333,8.296143 90.66333,8.296143 C90.66333,8.296143 91.45767,8.296143 91.45767,8.296143 C91.45767,8.296143 91.45767,19.506348 91.45767,19.506348 C91.45767,19.506348 90.66333,19.506348 90.66333,19.506348 C90.66333,19.506348 90.66333,13.964844 90.66333,13.964844 ZM80.17575,13.599609 C80.58099,13.996582 80.986206,14.377686 81.342834,14.8220215 C81.910095,15.520996 82.07214,16.140137 82.07214,17.029053 C82.07214,17.966064 81.89386,18.521729 81.66693,18.855225 C81.39145,19.252197 80.824066,19.681152 79.721985,19.681152 C79.28424,19.681152 78.76572,19.601562 78.409,19.411133 C78.328,19.363281 78.19833,19.28418 78.036285,19.141113 C77.77695,18.918701 77.59866,18.664795 77.468994,18.331299 C77.35547,18.013916 77.339325,17.759766 77.339325,17.42627 C77.339325,17.42627 77.339325,15.838379 77.339325,15.838379 C77.339325,15.838379 78.133545,15.838379 78.133545,15.838379 C78.133545,15.838379 78.133545,16.743408 78.133545,16.743408 C78.133545,16.98169 78.11731,17.204102 78.133545,17.442139 C78.165955,17.981934 78.34424,18.998291 79.81915,18.998291 C79.94882,18.998291 80.30554,18.998291 80.645874,18.791992 C81.050995,18.553467 81.27792,18.077148 81.27792,17.15625 C81.27792,16.282959 81.083496,15.885986 80.87268,15.55249 C80.451324,14.91748 79.689606,14.202881 79.57608,14.107666 C78.91153,13.472656 78.50629,13.028076 78.263214,12.69458 C77.98764,12.329346 77.6149,11.694092 77.6149,10.614502 C77.6149,10.550781 77.6149,10.090332 77.67969,9.772949 C77.79309,9.137695 78.165955,8.137207 79.77063,8.137207 C79.94882,8.137207 80.59723,8.137207 81.115875,8.455078 C81.910095,8.962891 81.910095,9.9157715 81.910095,10.725586 C81.910095,10.725586 81.910095,11.5354 81.910095,11.5354 C81.910095,11.5354 81.13202,11.5354 81.13202,11.5354 C81.13202,11.5354 81.13202,10.534912 81.13202,10.534912 C81.13202,10.137939 81.13202,10.010986 81.083496,9.788574 C81.018616,9.407471 80.77554,8.804199 79.78677,8.804199 C79.67334,8.804199 79.30051,8.804199 78.97629,8.994873 C78.61981,9.217041 78.409,9.661621 78.409,10.487305 C78.409,11.55127 78.700836,11.97998 79.397766,12.7578125 C79.64087,13.043701 79.90018,13.313721 80.17575,13.599609 ZM63.480072,13.313721 C63.480072,13.313721 66.170715,13.313721 66.170715,13.313721 C66.170715,13.313721 66.170715,13.996582 66.170715,13.996582 C66.170715,13.996582 63.480072,13.996582 63.480072,13.996582 C63.480072,13.996582 63.480072,18.807861 63.480072,18.807861 C63.480072,18.807861 66.737976,18.807861 66.737976,18.807861 C66.737976,18.807861 66.737976,19.506348 66.737976,19.506348 C66.737976,19.506348 62.702118,19.506348 62.702118,19.506348 C62.702118,19.506348 62.702118,8.296143 62.702118,8.296143 C62.702118,8.296143 66.75424,8.296143 66.75424,8.296143 C66.75424,8.296143 66.75424,8.994873 66.75424,8.994873 C66.75424,8.994873 63.480072,8.994873 63.480072,8.994873 C63.480072,8.994873 63.480072,13.313721 63.480072,13.313721 ZM57.417572,19.506348 C57.417572,19.506348 55.326843,13.694824 55.326843,13.694824 C55.326843,13.694824 54.48401,15.250732 54.48401,15.250732 C54.48401,15.250732 54.48401,19.506348 54.48401,19.506348 C54.48401,19.506348 53.705902,19.506348 53.705902,19.506348 C53.705902,19.506348 53.705902,8.296143 53.705902,8.296143 C53.705902,8.296143 54.500122,8.296143 54.500122,8.296143 C54.500122,8.296143 54.500122,13.790039 54.500122,13.790039 C54.500122,13.790039 57.352783,8.296143 57.352783,8.296143 C57.352783,8.296143 58.244293,8.296143 58.244293,8.296143 C58.244293,8.296143 55.81299,12.7578125 55.81299,12.7578125 C55.81299,12.7578125 58.276672,19.506348 58.276672,19.506348 C58.276672,19.506348 57.417572,19.506348 57.417572,19.506348 ZM47.75705,8.296143 C47.75705,8.296143 48.58377,8.296143 48.58377,8.296143 C48.58377,8.296143 48.58377,19.506348 48.58377,19.506348 C48.58377,19.506348 47.75705,19.506348 47.75705,19.506348 C47.75705,19.506348 47.75705,8.296143 47.75705,8.296143 ZM40.738037,19.506348 C40.738037,19.506348 38.45276,19.506348 38.45276,19.506348 C38.45276,19.506348 38.45276,8.296143 38.45276,8.296143 C38.45276,8.296143 40.624634,8.296143 40.624634,8.296143 C40.802917,8.296143 41.613403,8.232666 42.09967,8.772461 C42.423767,9.137695 42.488647,9.614014 42.488647,10.058838 C42.488647,10.058838 42.488647,11.72583 42.488647,11.72583 C42.488647,11.80542 42.50476,12.202148 42.407623,12.488037 C42.148285,13.281982 41.386475,13.377197 41.14337,13.424805 C41.30542,13.440918 41.9375,13.50415 42.35898,13.85376 C42.877625,14.282227 42.89377,14.91748 42.89377,15.504883 C42.89377,15.504883 42.89377,17.42627 42.89377,17.42627 C42.89377,18.029541 42.82898,18.58545 42.3266,19.029785 C41.726807,19.53833 40.964966,19.506348 40.738037,19.506348 ZM41.710663,11.55127 C41.710663,11.55127 41.710663,10.20166 41.710663,10.20166 C41.710663,9.884033 41.67816,9.67749 41.629517,9.550537 C41.418854,8.979004 40.754272,8.962891 40.251892,8.962891 C40.251892,8.962891 39.24698,8.962891 39.24698,8.962891 C39.24698,8.962891 39.24698,13.123291 39.24698,13.123291 C39.24698,13.123291 40.024963,13.123291 40.024963,13.123291 C40.462585,13.123291 40.57599,13.091309 40.802917,13.028076 C41.77545,12.7421875 41.710663,11.821045 41.710663,11.55127 ZM42.09967,15.489014 C42.09967,15.219238 42.083405,14.965088 42.00238,14.726807 C41.694427,13.901123 40.83542,13.805908 40.07361,13.805908 C40.07361,13.805908 39.263123,13.805908 39.263123,13.805908 C39.263123,13.805908 39.263123,18.823486 39.263123,18.823486 C39.263123,18.823486 40.60849,18.823486 40.60849,18.823486 C41.17578,18.823486 41.43509,18.728271 41.661926,18.56958 C42.03476,18.283691 42.09967,17.902588 42.09967,17.076904 C42.09967,17.076904 42.09967,15.489014 42.09967,15.489014 ZM27.559937,13.313721 C27.559937,13.313721 30.25055,13.313721 30.25055,13.313721 C30.25055,13.313721 30.25055,13.996582 30.25055,13.996582 C30.25055,13.996582 27.559937,13.996582 27.559937,13.996582 C27.559937,13.996582 27.559937,18.807861 27.559937,18.807861 C27.559937,18.807861 30.81784,18.807861 30.81784,18.807861 C30.81784,18.807861 30.81784,19.506348 30.81784,19.506348 C30.81784,19.506348 26.78186,19.506348 26.78186,19.506348 C26.78186,19.506348 26.78186,8.296143 26.78186,8.296143 C26.78186,8.296143 30.834106,8.296143 30.834106,8.296143 C30.834106,8.296143 30.834106,8.994873 30.834106,8.994873 C30.834106,8.994873 27.559937,8.994873 27.559937,8.994873 C27.559937,8.994873 27.559937,13.313721 27.559937,13.313721 ZM20.848999,13.964844 C20.848999,13.964844 17.898956,13.964844 17.898956,13.964844 C17.898956,13.964844 17.898956,19.506348 17.898956,19.506348 C17.898956,19.506348 17.120972,19.506348 17.120972,19.506348 C17.120972,19.506348 17.120972,8.296143 17.120972,8.296143 C17.120972,8.296143 17.898956,8.296143 17.898956,8.296143 C17.898956,8.296143 17.898956,13.281982 17.898956,13.281982 C17.898956,13.281982 20.848999,13.281982 20.848999,13.281982 C20.848999,13.281982 20.848999,8.296143 20.848999,8.296143 C20.848999,8.296143 21.643127,8.296143 21.643127,8.296143 C21.643127,8.296143 21.643127,19.506348 21.643127,19.506348 C21.643127,19.506348 20.848999,19.506348 20.848999,19.506348 C20.848999,19.506348 20.848999,13.964844 20.848999,13.964844 ZM10.766876,19.506348 C10.766876,19.506348 9.956421,19.506348 9.956421,19.506348 C9.956421,19.506348 9.956421,8.994873 9.956421,8.994873 C9.956421,8.994873 7.9628296,8.994873 7.9628296,8.994873 C7.9628296,8.994873 7.9628296,8.296143 7.9628296,8.296143 C7.9628296,8.296143 12.792938,8.296143 12.792938,8.296143 C12.792938,8.296143 12.792938,8.994873 12.792938,8.994873 C12.792938,8.994873 10.766876,8.994873 10.766876,8.994873 C10.766876,8.994873 10.766876,19.506348 10.766876,19.506348 Z"/>
</svg>